<svg width="548" height="322" viewBox="0 0 548 322" fill="none" xmlns="http://www.w3.org/2000/svg">
<g clip-path="url(#clip0_1457_1013)">
<path d="M307.66 235.524H346.813V6H314.689C310.79 6 307.66 9.13512 307.66 13.0403V235.524Z" fill="#4B5464"/>
<path d="M346.936 236H467.518V13.0549C467.518 9.14162 464.173 6 460.007 6H346.936V236Z" fill="url(#paint0_linear_1457_1013)"/>
<path d="M366.161 119.745H450.398C451.551 119.745 452.485 118.81 452.485 117.654V92.7385C452.485 91.5835 451.551 90.6484 450.398 90.6484H366.161C365.008 90.6484 364.074 91.5835 364.074 92.7385V117.654C364.074 118.81 365.008 119.745 366.161 119.745Z" fill="#94C23B"/>
<path d="M366.161 153.571H450.398C451.551 153.571 452.485 152.636 452.485 151.481V126.565C452.485 125.41 451.551 124.475 450.398 124.475H366.161C365.008 124.475 364.074 125.41 364.074 126.565V151.481C364.074 152.636 365.008 153.571 366.161 153.571Z" fill="#94C23B"/>
<path d="M366.161 187.452H450.398C451.551 187.452 452.485 186.517 452.485 185.362V160.446C452.485 159.291 451.551 158.356 450.398 158.356H366.161C365.008 158.356 364.074 159.291 364.074 160.446V185.362C364.074 186.517 365.008 187.452 366.161 187.452Z" fill="#94C23B"/>
<path d="M366.161 221.333H450.398C451.551 221.333 452.485 220.398 452.485 219.243V194.327C452.485 193.172 451.551 192.237 450.398 192.237H366.161C365.008 192.237 364.074 193.172 364.074 194.327V219.243C364.074 220.343 365.008 221.333 366.161 221.333Z" fill="#94C23B"/>
<path d="M366.161 85.8632H450.398C451.551 85.8632 452.485 84.9282 452.485 83.7731V58.8572C452.485 57.7021 451.551 56.7671 450.398 56.7671H366.161C365.008 56.7671 364.074 57.7021 364.074 58.8572V83.7731C364.074 84.9282 365.008 85.8632 366.161 85.8632Z" fill="#94C23B"/>
<path d="M372.456 78.8115L445.326 78.8115V64.346L372.456 64.346V78.8115Z" fill="url(#paint1_linear_1457_1013)"/>
<path d="M391.713 74.9326H439.707V68.2774H391.713V74.9326Z" fill="white"/>
<path d="M384.722 73.3776C385.662 73.3776 386.424 72.5896 386.424 71.6175C386.424 70.6454 385.662 69.8574 384.722 69.8574C383.782 69.8574 383.02 70.6454 383.02 71.6175C383.02 72.5896 383.782 73.3776 384.722 73.3776Z" fill="#FFA300"/>
<path d="M378.571 73.3776C379.512 73.3776 380.274 72.5896 380.274 71.6175C380.274 70.6454 379.512 69.8574 378.571 69.8574C377.631 69.8574 376.869 70.6454 376.869 71.6175C376.869 72.5896 377.631 73.3776 378.571 73.3776Z" fill="url(#paint2_linear_1457_1013)"/>
<path d="M372.456 113.024L445.326 113.024V98.5584L372.456 98.5584V113.024Z" fill="url(#paint3_linear_1457_1013)"/>
<path d="M391.713 109.145H439.707V102.49H391.713V109.145Z" fill="white"/>
<path d="M372.456 147.291H445.326V132.825H372.456V147.291Z" fill="url(#paint4_linear_1457_1013)"/>
<path d="M391.713 143.412H439.707V136.756H391.713V143.412Z" fill="white"/>
<path d="M372.456 181.502H445.326V167.037H372.456V181.502Z" fill="url(#paint5_linear_1457_1013)"/>
<path d="M391.752 177.607H439.746V171.006H391.752V177.607Z" fill="white"/>
<path d="M372.456 214.853H445.326V200.387H372.456V214.853Z" fill="url(#paint6_linear_1457_1013)"/>
<path d="M391.752 210.993H439.746V204.337H391.752V210.993Z" fill="white"/>
<path d="M384.722 209.563C385.662 209.563 386.424 208.775 386.424 207.803C386.424 206.83 385.662 206.042 384.722 206.042C383.782 206.042 383.02 206.83 383.02 207.803C383.02 208.775 383.782 209.563 384.722 209.563Z" fill="#FFA300"/>
<path d="M378.571 209.563C379.512 209.563 380.274 208.775 380.274 207.803C380.274 206.83 379.512 206.042 378.571 206.042C377.631 206.042 376.869 206.83 376.869 207.803C376.869 208.775 377.631 209.563 378.571 209.563Z" fill="url(#paint7_linear_1457_1013)"/>
<path d="M384.722 107.864C385.662 107.864 386.424 107.076 386.424 106.104C386.424 105.132 385.662 104.344 384.722 104.344C383.782 104.344 383.02 105.132 383.02 106.104C383.02 107.076 383.782 107.864 384.722 107.864Z" fill="#FFA300"/>
<path d="M378.571 107.864C379.512 107.864 380.274 107.076 380.274 106.104C380.274 105.132 379.512 104.344 378.571 104.344C377.631 104.344 376.869 105.132 376.869 106.104C376.869 107.076 377.631 107.864 378.571 107.864Z" fill="url(#paint8_linear_1457_1013)"/>
<path d="M383.074 139.985C383.074 140.975 383.843 141.745 384.777 141.745C385.71 141.745 386.479 140.975 386.479 139.985C386.479 138.995 385.71 138.225 384.777 138.225C383.788 138.225 383.074 138.995 383.074 139.985Z" fill="#FFA300"/>
<path d="M376.924 139.985C376.924 140.975 377.693 141.745 378.626 141.745C379.56 141.745 380.328 140.975 380.328 139.985C380.328 138.995 379.56 138.225 378.626 138.225C377.693 138.225 376.924 138.995 376.924 139.985Z" fill="url(#paint9_linear_1457_1013)"/>
<path d="M384.722 176.177C385.662 176.177 386.424 175.389 386.424 174.417C386.424 173.445 385.662 172.657 384.722 172.657C383.782 172.657 383.02 173.445 383.02 174.417C383.02 175.389 383.782 176.177 384.722 176.177Z" fill="#FFA300"/>
<path d="M378.571 176.177C379.512 176.177 380.274 175.389 380.274 174.417C380.274 173.445 379.512 172.657 378.571 172.657C377.631 172.657 376.869 173.445 376.869 174.417C376.869 175.389 377.631 176.177 378.571 176.177Z" fill="url(#paint10_linear_1457_1013)"/>
<path d="M412.617 26.571H450.453L453.363 23.5459H412.617V26.571Z" fill="#5C6771"/>
<path d="M412.617 31.081H450.453L453.363 28.1108H412.617V31.081Z" fill="#5C6771"/>
<path d="M412.617 35.6462H450.453L453.363 32.6211H412.617V35.6462Z" fill="#5C6771"/>
<path d="M412.617 40.1562H450.453L453.363 37.186H412.617V40.1562Z" fill="#5C6771"/>
<path d="M412.617 44.7214H450.453L453.363 41.6963H412.617V44.7214Z" fill="#5C6771"/>
<path d="M412.617 49.2318H450.453L453.363 46.2617H412.617V49.2318Z" fill="#5C6771"/>
<path d="M364.953 26.571H402.788L405.754 23.5459H364.953V26.571Z" fill="#5C6771"/>
<path d="M364.953 31.081H402.788L405.754 28.1108H364.953V31.081Z" fill="#5C6771"/>
<path d="M364.953 35.6462H402.788L405.754 32.6211H364.953V35.6462Z" fill="#5C6771"/>
<path d="M364.953 40.1562H402.788L405.754 37.186H364.953V40.1562Z" fill="#5C6771"/>
<path d="M364.953 44.7214H402.788L405.754 41.6963H364.953V44.7214Z" fill="#5C6771"/>
<path d="M364.953 49.2318H402.788L405.754 46.2617H364.953V49.2318Z" fill="#5C6771"/>
<path d="M322.048 71.6175H333.415C335.117 71.6175 336.545 70.2424 336.545 68.4824V56.6019C336.545 54.8969 335.172 53.4668 333.415 53.4668H322.048C320.346 53.4668 318.918 54.8418 318.918 56.6019V68.4824C318.918 70.1874 320.291 71.6175 322.048 71.6175Z" fill="#313C46"/>
<path d="M322.048 97.1385H333.415C335.117 97.1385 336.545 95.7634 336.545 94.0034V82.1229C336.545 80.4178 335.172 78.9878 333.415 78.9878H322.048C320.346 78.9878 318.918 80.3628 318.918 82.1229V94.0034C318.918 95.7634 320.291 97.1385 322.048 97.1385Z" fill="#313C46"/>
<path d="M322.048 124.034H333.415C335.117 124.034 336.545 122.659 336.545 120.899V109.019C336.545 107.314 335.172 105.884 333.415 105.884H322.048C320.346 105.884 318.918 107.259 318.918 109.019V120.899C318.918 122.604 320.291 124.034 322.048 124.034Z" fill="#313C46"/>
<path d="M322.048 149.555H333.415C335.117 149.555 336.545 148.18 336.545 146.42V134.54C336.545 132.835 335.172 131.405 333.415 131.405H322.048C320.346 131.405 318.918 132.78 318.918 134.54V146.42C318.918 148.18 320.291 149.555 322.048 149.555Z" fill="#313C46"/>
<path d="M322.048 221.388H333.415C335.117 221.388 336.545 220.013 336.545 218.253V162.811C336.545 161.106 335.172 159.676 333.415 159.676H322.048C320.346 159.676 318.918 161.051 318.918 162.811V218.308C318.918 220.013 320.291 221.388 322.048 221.388Z" fill="#313C46"/>
<path d="M98.2687 282.688C98.8589 244.953 113.761 209.582 140.468 182.833C167.715 155.541 203.865 140.565 242.376 140.565C280.886 140.565 317.085 155.59 344.283 182.833C370.99 209.582 385.892 244.953 386.483 282.688H98.2687ZM394.745 220.47C386.433 200.764 374.482 183.03 359.333 167.808C344.136 152.585 326.479 140.664 306.757 132.338C286.345 123.717 264.705 119.333 242.376 119.333C220.046 119.333 198.406 123.717 177.995 132.338C158.321 140.664 140.615 152.635 125.418 167.808C110.22 183.03 98.3178 200.715 90.0059 220.47C81.6939 240.224 77.3166 261.111 77.0215 282.688H407.73C407.435 261.111 403.057 240.224 394.745 220.47Z" fill="url(#paint11_linear_1457_1013)"/>
<path d="M386.484 282.689H98.2695C98.8597 244.953 113.811 209.583 140.469 182.833C167.716 155.541 203.866 140.565 242.377 140.565C280.887 140.565 317.086 155.591 344.284 182.833C370.991 209.583 385.942 245.003 386.484 282.689Z" fill="url(#paint12_linear_1457_1013)"/>
<path d="M243.654 141.797V167.906" stroke="#313C46" stroke-width="2" stroke-miterlimit="10"/>
<path d="M170.961 160.714L185.027 182.685" stroke="#313C46" stroke-width="2" stroke-miterlimit="10"/>
<path d="M117.746 215.79L140.272 228.893" stroke="#313C46" stroke-width="2" stroke-miterlimit="10"/>
<path d="M316.052 160.714L302.035 182.685" stroke="#313C46" stroke-width="2" stroke-miterlimit="10"/>
<path d="M369.317 215.79L346.742 228.893" stroke="#313C46" stroke-width="2" stroke-miterlimit="10"/>
<path d="M246.703 264.116L303.461 223.869L244.146 260.225C242.228 258.944 239.621 258.895 237.604 260.274C234.899 262.097 234.211 265.791 236.031 268.501C237.85 271.21 241.539 271.9 244.244 270.077C246.162 268.698 247.097 266.382 246.703 264.116Z" fill="#FFA300"/>
<path d="M208.832 214.755C208.832 213.671 209.029 212.686 209.422 211.75C209.816 210.814 210.406 209.977 211.144 209.287C211.881 208.597 212.718 208.006 213.701 207.612C214.685 207.218 215.718 207.021 216.849 207.021C218.029 207.021 219.161 207.218 220.144 207.661C221.128 208.105 222.013 208.745 222.702 209.583C223.439 210.42 223.98 211.405 224.374 212.588C224.767 213.77 224.964 215.149 224.964 216.627C224.964 218.844 224.767 220.765 224.374 222.44C223.98 224.115 223.39 225.445 222.653 226.578C221.915 227.662 221.029 228.5 219.997 229.041C218.964 229.583 217.833 229.879 216.554 229.879C215.127 229.879 213.8 229.534 212.619 228.844C211.439 228.155 210.504 227.169 209.816 225.889L211.537 224.214C211.98 225.199 212.668 225.987 213.603 226.578C214.488 227.169 215.521 227.465 216.603 227.465C218.324 227.465 219.702 226.677 220.734 225.15C221.767 223.623 222.308 221.455 222.357 218.696C221.915 219.78 221.128 220.667 220.144 221.307C219.111 221.948 217.931 222.292 216.603 222.292C215.521 222.292 214.537 222.095 213.603 221.701C212.668 221.307 211.832 220.765 211.144 220.125C210.455 219.435 209.914 218.647 209.521 217.711C209.029 216.775 208.832 215.79 208.832 214.755ZM216.8 209.435C216.062 209.435 215.373 209.583 214.734 209.878C214.095 210.174 213.554 210.568 213.062 211.011C212.57 211.504 212.176 212.046 211.931 212.686C211.635 213.327 211.488 214.016 211.488 214.755C211.488 215.494 211.635 216.184 211.931 216.824C212.226 217.465 212.619 218.007 213.062 218.499C213.554 218.992 214.095 219.337 214.734 219.632C215.373 219.928 216.062 220.076 216.8 220.076C217.537 220.076 218.226 219.928 218.865 219.632C219.505 219.337 220.046 218.992 220.538 218.499C221.029 218.007 221.423 217.465 221.669 216.824C221.964 216.184 222.112 215.494 222.112 214.755C222.112 214.016 221.964 213.376 221.669 212.686C221.374 212.046 220.98 211.455 220.538 210.962C220.046 210.469 219.505 210.075 218.816 209.829C218.226 209.583 217.537 209.435 216.8 209.435Z" fill="#313C46"/>
<path d="M227.375 214.755C227.375 213.671 227.572 212.686 227.965 211.75C228.359 210.814 228.949 209.977 229.687 209.287C230.424 208.597 231.26 208.006 232.244 207.612C233.228 207.218 234.261 207.021 235.392 207.021C236.572 207.021 237.703 207.218 238.687 207.661C239.671 208.105 240.556 208.745 241.245 209.583C241.982 210.42 242.523 211.405 242.917 212.588C243.31 213.77 243.507 215.149 243.507 216.627C243.507 218.844 243.31 220.765 242.917 222.44C242.523 224.115 241.933 225.445 241.196 226.578C240.458 227.662 239.572 228.5 238.54 229.041C237.507 229.583 236.376 229.879 235.097 229.879C233.67 229.879 232.343 229.534 231.162 228.844C229.982 228.155 229.047 227.169 228.359 225.889L230.08 224.214C230.523 225.199 231.211 225.987 232.146 226.578C233.031 227.169 234.064 227.465 235.146 227.465C236.867 227.465 238.245 226.677 239.277 225.15C240.31 223.623 240.851 221.455 240.9 218.696C240.458 219.78 239.671 220.667 238.687 221.307C237.654 221.948 236.474 222.292 235.146 222.292C234.064 222.292 233.08 222.095 232.146 221.701C231.211 221.307 230.375 220.765 229.687 220.125C228.998 219.435 228.457 218.647 228.064 217.711C227.572 216.775 227.375 215.79 227.375 214.755ZM235.343 209.435C234.605 209.435 233.916 209.583 233.277 209.878C232.638 210.174 232.097 210.568 231.605 211.011C231.113 211.504 230.719 212.046 230.474 212.686C230.178 213.327 230.031 214.016 230.031 214.755C230.031 215.494 230.178 216.184 230.474 216.824C230.769 217.465 231.162 218.007 231.605 218.499C232.097 218.992 232.638 219.337 233.277 219.632C233.916 219.928 234.605 220.076 235.343 220.076C236.08 220.076 236.769 219.928 237.408 219.632C238.048 219.337 238.589 218.992 239.081 218.499C239.572 218.007 239.966 217.465 240.212 216.824C240.507 216.184 240.654 215.494 240.654 214.755C240.654 214.016 240.507 213.376 240.212 212.686C239.917 212.046 239.523 211.455 239.081 210.962C238.589 210.469 238.048 210.075 237.359 209.829C236.769 209.583 236.08 209.435 235.343 209.435Z" fill="#313C46"/>
<path d="M246.998 228.647C246.998 229.337 247.539 229.879 248.228 229.879H248.326C249.015 229.879 249.556 229.337 249.556 228.647C249.556 227.957 249.015 227.416 248.326 227.416H248.228C247.539 227.416 246.998 228.007 246.998 228.647Z" fill="#313C46"/>
<path d="M252.703 214.755C252.703 213.671 252.9 212.686 253.293 211.75C253.687 210.814 254.277 209.976 255.015 209.287C255.752 208.597 256.589 208.006 257.572 207.612C258.556 207.218 259.589 207.021 260.72 207.021C261.9 207.021 263.032 207.218 264.015 207.661C264.999 208.104 265.884 208.745 266.573 209.582C267.311 210.42 267.852 211.405 268.245 212.587C268.639 213.77 268.835 215.149 268.835 216.627C268.835 218.844 268.639 220.765 268.245 222.44C267.852 224.115 267.261 225.445 266.524 226.578C265.786 227.662 264.901 228.499 263.868 229.041C262.835 229.583 261.704 229.878 260.425 229.878C258.999 229.878 257.671 229.534 256.49 228.844C255.31 228.154 254.375 227.169 253.687 225.888L255.408 224.213C255.851 225.198 256.539 225.987 257.474 226.578C258.359 227.169 259.392 227.465 260.474 227.465C262.195 227.465 263.573 226.676 264.605 225.149C265.638 223.622 266.179 221.454 266.229 218.696C265.786 219.78 264.999 220.666 264.015 221.307C262.982 221.947 261.802 222.292 260.474 222.292C259.392 222.292 258.408 222.095 257.474 221.701C256.539 221.307 255.703 220.765 255.015 220.124C254.326 219.435 253.785 218.647 253.392 217.711C252.9 216.775 252.703 215.789 252.703 214.755ZM260.671 209.434C259.933 209.434 259.244 209.582 258.605 209.878C257.966 210.173 257.425 210.567 256.933 211.011C256.441 211.503 256.048 212.045 255.802 212.686C255.507 213.326 255.359 214.016 255.359 214.755C255.359 215.494 255.507 216.183 255.802 216.824C256.097 217.464 256.49 218.006 256.933 218.499C257.425 218.991 257.966 219.336 258.605 219.632C259.244 219.927 259.933 220.075 260.671 220.075C261.409 220.075 262.097 219.927 262.737 219.632C263.376 219.336 263.917 218.991 264.409 218.499C264.901 218.006 265.294 217.464 265.54 216.824C265.835 216.183 265.983 215.494 265.983 214.755C265.983 214.016 265.835 213.375 265.54 212.686C265.245 212.045 264.851 211.454 264.409 210.962C263.917 210.469 263.376 210.075 262.687 209.828C262.048 209.582 261.359 209.434 260.671 209.434Z" fill="#313C46"/>
<path d="M276.312 211.553C275.624 211.553 275.033 211.454 274.443 211.208C273.853 210.962 273.361 210.617 272.919 210.223C272.476 209.829 272.132 209.336 271.886 208.745C271.64 208.154 271.492 207.563 271.492 206.922C271.492 206.282 271.64 205.691 271.886 205.149C272.132 204.558 272.476 204.114 272.919 203.671C273.361 203.277 273.853 202.932 274.443 202.686C275.033 202.439 275.673 202.341 276.312 202.341C277.001 202.341 277.591 202.439 278.181 202.686C278.771 202.932 279.263 203.277 279.706 203.671C280.148 204.065 280.493 204.558 280.739 205.149C280.985 205.74 281.132 206.331 281.132 206.922C281.132 207.513 280.985 208.154 280.739 208.745C280.493 209.336 280.148 209.78 279.706 210.223C279.263 210.617 278.771 210.962 278.181 211.208C277.591 211.405 276.952 211.553 276.312 211.553ZM272.525 224.016L281.329 213.376L289.788 202.489L291.165 203.671L282.46 214.262L273.853 225.199L272.525 224.016ZM276.312 210.026C276.706 210.026 277.099 209.927 277.443 209.78C277.788 209.632 278.083 209.385 278.329 209.09C278.575 208.794 278.771 208.499 278.919 208.105C279.066 207.76 279.116 207.366 279.116 206.922C279.116 206.479 279.017 206.085 278.87 205.74C278.722 205.346 278.525 205.05 278.279 204.755C278.034 204.459 277.738 204.262 277.394 204.114C277.05 203.966 276.706 203.868 276.312 203.868C275.919 203.868 275.525 203.966 275.181 204.114C274.837 204.262 274.542 204.508 274.296 204.804C274.05 205.1 273.853 205.395 273.705 205.789C273.558 206.183 273.509 206.577 273.509 206.972C273.509 207.415 273.558 207.809 273.705 208.154C273.853 208.548 274.05 208.844 274.296 209.139C274.542 209.435 274.886 209.632 275.23 209.78C275.574 209.927 275.919 210.026 276.312 210.026ZM287.378 225.347C286.69 225.347 286.1 225.248 285.509 225.002C284.919 224.755 284.427 224.411 283.985 224.016C283.542 223.622 283.198 223.13 282.952 222.539C282.706 221.947 282.558 221.356 282.558 220.716C282.558 220.075 282.706 219.484 282.952 218.942C283.198 218.351 283.542 217.908 283.985 217.464C284.427 217.07 284.919 216.726 285.509 216.479C286.1 216.233 286.739 216.134 287.378 216.134C288.067 216.134 288.657 216.233 289.247 216.479C289.838 216.726 290.329 217.07 290.772 217.464C291.215 217.859 291.559 218.351 291.805 218.942C292.051 219.534 292.198 220.125 292.198 220.716C292.198 221.356 292.051 221.947 291.805 222.539C291.559 223.13 291.215 223.573 290.772 224.016C290.329 224.411 289.838 224.755 289.247 225.002C288.657 225.248 288.018 225.347 287.378 225.347ZM287.378 223.819C287.772 223.819 288.165 223.721 288.51 223.573C288.854 223.425 289.149 223.179 289.395 222.883C289.641 222.588 289.838 222.292 289.985 221.898C290.133 221.553 290.182 221.159 290.182 220.716C290.182 220.272 290.083 219.878 289.936 219.534C289.788 219.139 289.592 218.844 289.346 218.548C289.1 218.253 288.805 218.056 288.46 217.908C288.116 217.76 287.772 217.662 287.378 217.662C286.985 217.662 286.591 217.76 286.247 217.908C285.903 218.056 285.608 218.302 285.362 218.598C285.116 218.893 284.919 219.189 284.772 219.583C284.624 219.977 284.575 220.371 284.575 220.765C284.575 221.208 284.624 221.603 284.772 221.947C284.919 222.342 285.116 222.637 285.362 222.933C285.608 223.228 285.952 223.425 286.296 223.573C286.641 223.77 286.985 223.819 287.378 223.819Z" fill="#313C46"/>
<path d="M77.0702 282.688L0 322H480.029L407.729 282.688H77.0702Z" fill="url(#paint13_linear_1457_1013)"/>
<path d="M168.797 124.85C166.682 124.85 164.665 125.195 162.796 125.835C158.616 113.076 146.615 103.864 132.5 103.864C120.105 103.864 109.383 110.909 104.121 121.254C101.219 120.022 98.0712 119.333 94.7268 119.333C81.3981 119.333 70.627 130.121 70.627 143.472C70.627 143.669 70.627 143.816 70.627 144.013H101.662H118.777H150.255H163.337H187.388C187.388 143.816 187.388 143.669 187.388 143.472C187.388 133.225 179.076 124.85 168.797 124.85Z" fill="url(#paint14_linear_1457_1013)"/>
<path d="M548 297.714C548 277.269 531.425 260.668 511.014 260.668C506.833 260.668 502.8 261.358 499.062 262.638C490.75 237.268 466.896 218.893 438.764 218.893C414.172 218.893 392.826 232.933 382.301 253.426C376.547 251.012 370.251 249.633 363.612 249.633C337.151 249.633 315.707 271.112 315.707 297.615C315.707 297.96 315.707 298.354 315.756 298.699H377.481H411.565H474.126H500.193L548 297.714Z" fill="#4B5464"/>
</g>
<defs>
<linearGradient id="paint0_linear_1457_1013" x1="346.922" y1="120.971" x2="467.496" y2="120.971" gradientUnits="userSpaceOnUse">
<stop stop-color="#B1C4B9"/>
<stop offset="0.5044" stop-color="#CADBD2"/>
<stop offset="1" stop-color="#DFEDE6"/>
</linearGradient>
<linearGradient id="paint1_linear_1457_1013" x1="445.326" y1="71.6463" x2="372.456" y2="71.6463" gradientUnits="userSpaceOnUse">
<stop stop-color="#94C23B"/>
<stop offset="1" stop-color="#468E53"/>
</linearGradient>
<linearGradient id="paint2_linear_1457_1013" x1="376.923" y1="71.5975" x2="380.274" y2="71.5975" gradientUnits="userSpaceOnUse">
<stop stop-color="#3D4E59"/>
<stop offset="0.9963" stop-color="#5D6A72"/>
</linearGradient>
<linearGradient id="paint3_linear_1457_1013" x1="445.326" y1="105.859" x2="372.456" y2="105.859" gradientUnits="userSpaceOnUse">
<stop stop-color="#94C23B"/>
<stop offset="1" stop-color="#468E53"/>
</linearGradient>
<linearGradient id="paint4_linear_1457_1013" x1="445.326" y1="140.125" x2="372.456" y2="140.125" gradientUnits="userSpaceOnUse">
<stop stop-color="#94C23B"/>
<stop offset="1" stop-color="#468E53"/>
</linearGradient>
<linearGradient id="paint5_linear_1457_1013" x1="445.326" y1="174.337" x2="372.456" y2="174.337" gradientUnits="userSpaceOnUse">
<stop stop-color="#94C23B"/>
<stop offset="1" stop-color="#468E53"/>
</linearGradient>
<linearGradient id="paint6_linear_1457_1013" x1="445.326" y1="207.688" x2="372.456" y2="207.688" gradientUnits="userSpaceOnUse">
<stop stop-color="#94C23B"/>
<stop offset="1" stop-color="#468E53"/>
</linearGradient>
<linearGradient id="paint7_linear_1457_1013" x1="376.923" y1="207.793" x2="380.274" y2="207.793" gradientUnits="userSpaceOnUse">
<stop stop-color="#3D4E59"/>
<stop offset="0.9963" stop-color="#5D6A72"/>
</linearGradient>
<linearGradient id="paint8_linear_1457_1013" x1="376.923" y1="106.115" x2="380.274" y2="106.115" gradientUnits="userSpaceOnUse">
<stop stop-color="#3D4E59"/>
<stop offset="0.9963" stop-color="#5D6A72"/>
</linearGradient>
<linearGradient id="paint9_linear_1457_1013" x1="376.923" y1="139.988" x2="380.274" y2="139.988" gradientUnits="userSpaceOnUse">
<stop stop-color="#3D4E59"/>
<stop offset="0.9963" stop-color="#5D6A72"/>
</linearGradient>
<linearGradient id="paint10_linear_1457_1013" x1="376.923" y1="174.42" x2="380.274" y2="174.42" gradientUnits="userSpaceOnUse">
<stop stop-color="#3D4E59"/>
<stop offset="0.9963" stop-color="#5D6A72"/>
</linearGradient>
<linearGradient id="paint11_linear_1457_1013" x1="77.0215" y1="200.247" x2="407.73" y2="200.247" gradientUnits="userSpaceOnUse">
<stop stop-color="#94C23B"/>
<stop offset="1" stop-color="#468E53"/>
</linearGradient>
<linearGradient id="paint12_linear_1457_1013" x1="308.764" y1="243.214" x2="-32.2659" y2="160.437" gradientUnits="userSpaceOnUse">
<stop stop-color="white"/>
<stop offset="1" stop-color="#DCE2DE"/>
</linearGradient>
<linearGradient id="paint13_linear_1457_1013" x1="240.014" y1="282.688" x2="240.014" y2="322" gradientUnits="userSpaceOnUse">
<stop stop-color="#2D3848"/>
<stop offset="1" stop-color="#101928"/>
</linearGradient>
<linearGradient id="paint14_linear_1457_1013" x1="70.5914" y1="123.961" x2="187.401" y2="123.961" gradientUnits="userSpaceOnUse">
<stop stop-color="white"/>
<stop offset="0.9963" stop-color="#DCE2DE"/>
</linearGradient>
<clipPath id="clip0_1457_1013">
<rect width="548" height="322" fill="white"/>
</clipPath>
</defs>
</svg>
