<svg width="482" height="375" viewBox="0 0 482 375" fill="none" xmlns="http://www.w3.org/2000/svg">
<g clip-path="url(#clip0_1457_1129)">
<path d="M75.4453 336.562L0 375H482L411.212 336.562H75.4453Z" fill="url(#paint0_linear_1457_1129)"/>
<path d="M42.2776 342.917H62.0346V305.146H42.2264C39.9231 305.146 38.0293 307.042 38.0293 309.348V338.663C38.0805 341.021 39.9743 342.917 42.2776 342.917Z" fill="#4B5464"/>
<path d="M61.9336 342.917H126.886C129.241 342.917 131.134 341.021 131.134 338.663V309.348C131.134 307.042 129.241 305.146 126.937 305.146H61.9336V342.917Z" fill="url(#paint1_linear_1457_1129)"/>
<path d="M69.0995 332.308H120.847C121.512 332.308 122.075 331.744 122.075 331.078V316.728C122.075 316.062 121.512 315.498 120.847 315.498H69.0995C68.4341 315.498 67.8711 316.062 67.8711 316.728V331.078C67.8711 331.744 68.4341 332.308 69.0995 332.308Z" fill="#94C23B"/>
<path d="M73.0253 328.229H117.709V319.875H73.0253V328.229Z" fill="url(#paint2_linear_1457_1129)"/>
<path d="M84.8309 325.969H114.262V322.125H84.8309V325.969Z" fill="white"/>
<path d="M80.5139 325.082C81.0793 325.082 81.5376 324.623 81.5376 324.057C81.5376 323.491 81.0793 323.032 80.5139 323.032C79.9486 323.032 79.4902 323.491 79.4902 324.057C79.4902 324.623 79.9486 325.082 80.5139 325.082Z" fill="#FFA300"/>
<path d="M76.7776 325.082C77.3429 325.082 77.8013 324.623 77.8013 324.057C77.8013 323.491 77.3429 323.032 76.7776 323.032C76.2122 323.032 75.7539 323.491 75.7539 324.057C75.7539 324.623 76.2122 325.082 76.7776 325.082Z" fill="url(#paint3_linear_1457_1129)"/>
<path d="M46.7821 321.648H53.9478C54.9715 321.648 55.7905 320.828 55.7905 319.803V313.346C55.7905 312.321 54.9715 311.5 53.9478 311.5H46.7821C45.7584 311.5 44.9395 312.321 44.9395 313.346V319.803C44.9395 320.828 45.7584 321.648 46.7821 321.648Z" fill="#313C46"/>
<path d="M46.7821 335.844H53.9478C54.9715 335.844 55.7905 335.024 55.7905 333.999V327.542C55.7905 326.517 54.9715 325.697 53.9478 325.697H46.7821C45.7584 325.697 44.9395 326.517 44.9395 327.542V333.999C44.9395 335.024 45.7584 335.844 46.7821 335.844Z" fill="#313C46"/>
<path d="M351.993 57.0931L356.753 71.6995H372.109C372.774 71.6995 373.03 72.5707 372.518 72.9295L360.132 81.9496L364.892 96.556C365.096 97.171 364.38 97.6835 363.868 97.3247L351.482 88.3047L339.095 97.3247C338.583 97.7347 337.867 97.171 338.071 96.556L342.831 81.9496L330.445 72.9295C329.933 72.5195 330.189 71.6995 330.854 71.6995H346.21L350.97 57.0931C350.867 56.4781 351.789 56.4781 351.993 57.0931Z" fill="url(#paint4_linear_1457_1129)"/>
<path d="M390.739 70.0596L393.247 77.7984H401.386C401.744 77.7984 401.897 78.2597 401.59 78.4647L395.039 83.231L397.547 90.9698C397.649 91.3286 397.291 91.5848 396.984 91.3798L390.432 86.6135L383.881 91.3798C383.573 91.5848 383.215 91.3286 383.318 90.9698L385.826 83.231L379.274 78.4647C378.967 78.2597 379.12 77.7984 379.479 77.7984H387.617L390.125 70.0596C390.176 69.7008 390.637 69.7008 390.739 70.0596Z" fill="url(#paint5_linear_1457_1129)"/>
<path d="M311.608 70.0596L314.116 77.7984H322.255C322.613 77.7984 322.767 78.2597 322.459 78.4647L315.908 83.231L318.416 90.9698C318.518 91.3286 318.16 91.5848 317.853 91.3798L311.301 86.6135L304.75 91.3798C304.443 91.5848 304.084 91.3286 304.187 90.9698L306.695 83.231L300.143 78.4647C299.836 78.2597 299.99 77.7984 300.348 77.7984H308.486L310.994 70.0596C310.994 69.7008 311.506 69.7008 311.608 70.0596Z" fill="url(#paint6_linear_1457_1129)"/>
<path d="M188.256 191.779C194.588 191.779 199.721 187.672 199.721 182.605C199.721 177.539 194.588 173.432 188.256 173.432C181.924 173.432 176.791 177.539 176.791 182.605C176.791 187.672 181.924 191.779 188.256 191.779Z" fill="#313C46"/>
<path d="M205.146 196.341H171.467C169.778 196.341 168.447 195.008 168.447 193.317V185.681C168.447 183.989 169.778 182.657 171.467 182.657H205.146C206.835 182.657 208.166 183.989 208.166 185.681V193.317C208.166 194.957 206.784 196.341 205.146 196.341Z" fill="url(#paint7_linear_1457_1129)"/>
<path d="M193.221 0H183.496V177.019H193.221V0Z" fill="url(#paint8_linear_1457_1129)"/>
<path d="M166.963 188.346C166.963 188.346 140.45 198.801 139.119 220.326C139.119 227.194 142.497 240.314 147.001 245.746C147.001 245.746 146.234 229.397 148.793 220.326C151.352 211.203 161.896 203.772 174.846 196.341L166.963 188.346Z" fill="url(#paint9_linear_1457_1129)"/>
<path d="M173.157 196.495L167.015 188.858C166.247 187.936 166.401 186.501 167.322 185.783C168.243 185.014 169.677 185.168 170.393 186.091L176.535 193.727C177.303 194.65 177.149 196.085 176.228 196.802C175.307 197.622 173.925 197.468 173.157 196.495Z" fill="url(#paint10_linear_1457_1129)"/>
<path d="M209.855 188.346C209.855 188.346 236.368 198.801 237.699 220.326C237.699 227.194 234.321 240.314 229.817 245.746C229.817 245.746 230.585 229.397 228.025 220.326C225.466 211.203 214.922 203.772 201.973 196.341L209.855 188.346Z" fill="url(#paint11_linear_1457_1129)"/>
<path d="M203.663 196.495L209.805 188.858C210.573 187.936 210.419 186.501 209.498 185.783C208.576 185.014 207.143 185.168 206.427 186.091L200.285 193.727C199.517 194.65 199.67 196.085 200.592 196.802C201.513 197.622 202.895 197.468 203.663 196.495Z" fill="url(#paint12_linear_1457_1129)"/>
<path d="M143.416 342.917H163.173V305.146H143.365C141.062 305.146 139.168 307.042 139.168 309.348V338.663C139.168 341.021 141.062 342.917 143.416 342.917Z" fill="#4B5464"/>
<path d="M163.02 342.917H227.972C230.327 342.917 232.22 341.021 232.22 338.663V309.348C232.22 307.042 230.327 305.146 228.023 305.146H163.02V342.917Z" fill="url(#paint13_linear_1457_1129)"/>
<path d="M170.236 332.308H221.983C222.649 332.308 223.212 331.744 223.212 331.078V316.728C223.212 316.062 222.649 315.498 221.983 315.498H170.236C169.571 315.498 169.008 316.062 169.008 316.728V331.078C169.008 331.744 169.52 332.308 170.236 332.308Z" fill="#94C23B"/>
<path d="M174.133 328.229H218.816V319.875H174.133V328.229Z" fill="url(#paint14_linear_1457_1129)"/>
<path d="M185.938 325.969H215.369V322.125H185.938V325.969Z" fill="white"/>
<path d="M181.649 325.082C182.214 325.082 182.672 324.623 182.672 324.057C182.672 323.491 182.214 323.032 181.649 323.032C181.083 323.032 180.625 323.491 180.625 324.057C180.625 324.623 181.083 325.082 181.649 325.082Z" fill="#FFA300"/>
<path d="M177.862 325.082C178.427 325.082 178.885 324.623 178.885 324.057C178.885 323.491 178.427 323.032 177.862 323.032C177.296 323.032 176.838 323.491 176.838 324.057C176.838 324.623 177.296 325.082 177.862 325.082Z" fill="url(#paint15_linear_1457_1129)"/>
<path d="M147.87 321.648H155.036C156.059 321.648 156.878 320.828 156.878 319.803V313.346C156.878 312.321 156.059 311.5 155.036 311.5H147.87C146.846 311.5 146.027 312.321 146.027 313.346V319.803C146.079 320.828 146.897 321.648 147.87 321.648Z" fill="#313C46"/>
<path d="M147.87 335.844H155.036C156.059 335.844 156.878 335.024 156.878 333.999V327.542C156.878 326.517 156.059 325.697 155.036 325.697H147.87C146.846 325.697 146.027 326.517 146.027 327.542V333.999C146.079 335.024 146.897 335.844 147.87 335.844Z" fill="#313C46"/>
<path d="M143.416 303.608H163.173V265.836H143.365C141.062 265.836 139.168 267.733 139.168 270.039V299.354C139.168 301.712 141.062 303.608 143.416 303.608Z" fill="#4B5464"/>
<path d="M163.02 303.608H227.972C230.327 303.608 232.22 301.712 232.22 299.354V270.039C232.22 267.733 230.327 265.836 228.023 265.836H163.02V303.608Z" fill="url(#paint16_linear_1457_1129)"/>
<path d="M170.236 292.999H221.983C222.649 292.999 223.212 292.435 223.212 291.769V277.47C223.212 276.804 222.649 276.24 221.983 276.24H170.236C169.571 276.24 169.008 276.804 169.008 277.47V291.769C169.008 292.435 169.52 292.999 170.236 292.999Z" fill="#94C23B"/>
<path d="M174.133 288.938H218.816V280.585H174.133V288.938Z" fill="url(#paint17_linear_1457_1129)"/>
<path d="M185.938 286.679H215.369V282.835H185.938V286.679Z" fill="white"/>
<path d="M181.649 285.773C182.214 285.773 182.672 285.314 182.672 284.748C182.672 284.182 182.214 283.723 181.649 283.723C181.083 283.723 180.625 284.182 180.625 284.748C180.625 285.314 181.083 285.773 181.649 285.773Z" fill="#FFA300"/>
<path d="M177.862 285.773C178.427 285.773 178.885 285.314 178.885 284.748C178.885 284.182 178.427 283.723 177.862 283.723C177.296 283.723 176.838 284.182 176.838 284.748C176.838 285.314 177.296 285.773 177.862 285.773Z" fill="url(#paint18_linear_1457_1129)"/>
<path d="M147.87 282.339H155.036C156.059 282.339 156.878 281.519 156.878 280.494V274.036C156.878 273.011 156.059 272.191 155.036 272.191H147.87C146.846 272.191 146.027 273.011 146.027 274.036V280.494C146.079 281.519 146.897 282.339 147.87 282.339Z" fill="#313C46"/>
<path d="M147.87 296.587H155.036C156.059 296.587 156.878 295.767 156.878 294.742V288.284C156.878 287.259 156.059 286.439 155.036 286.439H147.87C146.846 286.439 146.027 287.259 146.027 288.284V294.742C146.079 295.767 146.897 296.587 147.87 296.587Z" fill="#313C46"/>
<path d="M269 342H306V127H275.642C271.958 127 269 129.937 269 133.595V342Z" fill="#4B5464"/>
<path d="M306.15 342H419.316V133.349C419.316 129.686 416.177 126.746 412.267 126.746H306.15V342Z" fill="url(#paint19_linear_1457_1129)"/>
<path d="M324.193 233.198H403.248C404.33 233.198 405.207 232.323 405.207 231.242V207.923C405.207 206.842 404.33 205.967 403.248 205.967H324.193C323.11 205.967 322.234 206.842 322.234 207.923V231.242C322.234 232.323 323.11 233.198 324.193 233.198Z" fill="#94C23B"/>
<path d="M324.193 264.856H403.248C404.33 264.856 405.207 263.981 405.207 262.9V239.581C405.207 238.5 404.33 237.625 403.248 237.625H324.193C323.11 237.625 322.234 238.5 322.234 239.581V262.9C322.234 263.981 323.11 264.856 324.193 264.856Z" fill="#94C23B"/>
<path d="M324.193 296.565H403.248C404.33 296.565 405.207 295.69 405.207 294.609V271.29C405.207 270.209 404.33 269.334 403.248 269.334H324.193C323.11 269.334 322.234 270.209 322.234 271.29V294.609C322.234 295.69 323.11 296.565 324.193 296.565Z" fill="#94C23B"/>
<path d="M324.193 328.274H403.248C404.33 328.274 405.207 327.399 405.207 326.318V302.999C405.207 301.918 404.33 301.043 403.248 301.043H324.193C323.11 301.043 322.234 301.918 322.234 302.999V326.318C322.234 327.347 323.11 328.274 324.193 328.274Z" fill="#94C23B"/>
<path d="M324.193 201.489H403.248C404.33 201.489 405.207 200.614 405.207 199.533V176.214C405.207 175.133 404.33 174.258 403.248 174.258H324.193C323.11 174.258 322.234 175.133 322.234 176.214V199.533C322.234 200.614 323.11 201.489 324.193 201.489Z" fill="#94C23B"/>
<path d="M330.101 194.89H398.488V181.352H330.101V194.89Z" fill="url(#paint20_linear_1457_1129)"/>
<path d="M348.173 191.259H393.215V185.031H348.173V191.259Z" fill="white"/>
<path d="M341.613 189.804C342.496 189.804 343.211 189.067 343.211 188.157C343.211 187.247 342.496 186.51 341.613 186.51C340.731 186.51 340.016 187.247 340.016 188.157C340.016 189.067 340.731 189.804 341.613 189.804Z" fill="#FFA300"/>
<path d="M335.84 189.804C336.722 189.804 337.437 189.067 337.437 188.157C337.437 187.247 336.722 186.51 335.84 186.51C334.957 186.51 334.242 187.247 334.242 188.157C334.242 189.067 334.957 189.804 335.84 189.804Z" fill="url(#paint21_linear_1457_1129)"/>
<path d="M330.101 226.908H398.488V213.37H330.101V226.908Z" fill="url(#paint22_linear_1457_1129)"/>
<path d="M348.177 223.277H393.219V217.049H348.177V223.277Z" fill="white"/>
<path d="M330.101 258.979H398.488V245.44H330.101V258.979Z" fill="url(#paint23_linear_1457_1129)"/>
<path d="M348.177 255.348H393.219V249.119H348.177V255.348Z" fill="white"/>
<path d="M330.101 290.997H398.488V277.458H330.101V290.997Z" fill="url(#paint24_linear_1457_1129)"/>
<path d="M348.207 287.35H393.249V281.173H348.207V287.35Z" fill="white"/>
<path d="M330.101 322.209H398.488V308.671H330.101V322.209Z" fill="url(#paint25_linear_1457_1129)"/>
<path d="M348.207 318.597H393.249V312.368H348.207V318.597Z" fill="white"/>
<path d="M341.613 317.258C342.496 317.258 343.211 316.521 343.211 315.611C343.211 314.701 342.496 313.964 341.613 313.964C340.731 313.964 340.016 314.701 340.016 315.611C340.016 316.521 340.731 317.258 341.613 317.258Z" fill="#FFA300"/>
<path d="M335.84 317.258C336.722 317.258 337.437 316.521 337.437 315.611C337.437 314.701 336.722 313.964 335.84 313.964C334.957 313.964 334.242 314.701 334.242 315.611C334.242 316.521 334.957 317.258 335.84 317.258Z" fill="url(#paint26_linear_1457_1129)"/>
<path d="M341.613 222.079C342.496 222.079 343.211 221.342 343.211 220.432C343.211 219.522 342.496 218.785 341.613 218.785C340.731 218.785 340.016 219.522 340.016 220.432C340.016 221.342 340.731 222.079 341.613 222.079Z" fill="#FFA300"/>
<path d="M335.84 222.079C336.722 222.079 337.437 221.342 337.437 220.432C337.437 219.522 336.722 218.785 335.84 218.785C334.957 218.785 334.242 219.522 334.242 220.432C334.242 221.342 334.957 222.079 335.84 222.079Z" fill="url(#paint27_linear_1457_1129)"/>
<path d="M340.066 252.141C340.066 253.067 340.788 253.788 341.664 253.788C342.54 253.788 343.262 253.067 343.262 252.141C343.262 251.214 342.54 250.494 341.664 250.494C340.736 250.494 340.066 251.214 340.066 252.141Z" fill="#FFA300"/>
<path d="M334.293 252.141C334.293 253.067 335.014 253.788 335.891 253.788C336.767 253.788 337.488 253.067 337.488 252.141C337.488 251.214 336.767 250.494 335.891 250.494C335.014 250.494 334.293 251.214 334.293 252.141Z" fill="url(#paint28_linear_1457_1129)"/>
<path d="M341.613 286.012C342.496 286.012 343.211 285.275 343.211 284.365C343.211 283.455 342.496 282.718 341.613 282.718C340.731 282.718 340.016 283.455 340.016 284.365C340.016 285.275 340.731 286.012 341.613 286.012Z" fill="#FFA300"/>
<path d="M335.84 286.012C336.722 286.012 337.437 285.275 337.437 284.365C337.437 283.455 336.722 282.718 335.84 282.718C334.957 282.718 334.242 283.455 334.242 284.365C334.242 285.275 334.957 286.012 335.84 286.012Z" fill="url(#paint29_linear_1457_1129)"/>
<path d="M367.791 146.045H403.299L406.03 143.207H367.791V146.045Z" fill="#5C6771"/>
<path d="M367.791 150.277H403.299L406.03 147.49H367.791V150.277Z" fill="#5C6771"/>
<path d="M367.791 154.559H403.299L406.03 151.721H367.791V154.559Z" fill="#5C6771"/>
<path d="M367.791 158.791H403.299L406.03 156.004H367.791V158.791Z" fill="#5C6771"/>
<path d="M367.791 163.074H403.299L406.03 160.236H367.791V163.074Z" fill="#5C6771"/>
<path d="M367.791 167.305H403.299L406.03 164.519H367.791V167.305Z" fill="#5C6771"/>
<path d="M323.061 146.045H358.569L361.351 143.207H323.061V146.045Z" fill="#5C6771"/>
<path d="M323.061 150.277H358.569L361.351 147.49H323.061V150.277Z" fill="#5C6771"/>
<path d="M323.061 154.559H358.569L361.351 151.721H323.061V154.559Z" fill="#5C6771"/>
<path d="M323.061 158.791H358.569L361.351 156.004H323.061V158.791Z" fill="#5C6771"/>
<path d="M323.061 163.074H358.569L361.351 160.236H323.061V163.074Z" fill="#5C6771"/>
<path d="M323.061 167.305H358.569L361.351 164.519H323.061V167.305Z" fill="#5C6771"/>
<path d="M282.793 188.307H293.461C295.058 188.307 296.398 187.017 296.398 185.366V174.22C296.398 172.62 295.11 171.279 293.461 171.279H282.793C281.195 171.279 279.855 172.569 279.855 174.22V185.366C279.855 186.966 281.144 188.307 282.793 188.307Z" fill="#313C46"/>
<path d="M282.793 212.251H293.461C295.058 212.251 296.398 210.961 296.398 209.31V198.163C296.398 196.564 295.11 195.222 293.461 195.222H282.793C281.195 195.222 279.855 196.512 279.855 198.163V209.31C279.855 210.961 281.144 212.251 282.793 212.251Z" fill="#313C46"/>
<path d="M282.793 237.484H293.461C295.058 237.484 296.398 236.194 296.398 234.543V223.397C296.398 221.797 295.11 220.456 293.461 220.456H282.793C281.195 220.456 279.855 221.746 279.855 223.397V234.543C279.855 236.143 281.144 237.484 282.793 237.484Z" fill="#313C46"/>
<path d="M282.793 261.428H293.461C295.058 261.428 296.398 260.138 296.398 258.486V247.34C296.398 245.741 295.11 244.399 293.461 244.399H282.793C281.195 244.399 279.855 245.689 279.855 247.34V258.486C279.855 260.138 281.144 261.428 282.793 261.428Z" fill="#313C46"/>
<path d="M282.793 328.82H293.461C295.058 328.82 296.398 327.53 296.398 325.879V273.864C296.398 272.264 295.11 270.922 293.461 270.922H282.793C281.195 270.922 279.855 272.212 279.855 273.864V325.93C279.855 327.53 281.144 328.82 282.793 328.82Z" fill="#313C46"/>
</g>
<defs>
<linearGradient id="paint0_linear_1457_1129" x1="240.999" y1="376.62" x2="240.999" y2="333.978" gradientUnits="userSpaceOnUse">
<stop stop-color="#101928"/>
<stop offset="1" stop-color="#293344"/>
</linearGradient>
<linearGradient id="paint1_linear_1457_1129" x1="61.9199" y1="324.043" x2="131.129" y2="324.043" gradientUnits="userSpaceOnUse">
<stop stop-color="#B1C4B9"/>
<stop offset="0.5044" stop-color="#CADBD2"/>
<stop offset="1" stop-color="#DFEDE6"/>
</linearGradient>
<linearGradient id="paint2_linear_1457_1129" x1="117.709" y1="324.091" x2="73.0253" y2="324.091" gradientUnits="userSpaceOnUse">
<stop stop-color="#94C23B"/>
<stop offset="1" stop-color="#468E53"/>
</linearGradient>
<linearGradient id="paint3_linear_1457_1129" x1="75.7367" y1="324.065" x2="77.7921" y2="324.065" gradientUnits="userSpaceOnUse">
<stop stop-color="#3D4E59"/>
<stop offset="0.9963" stop-color="#5D6A72"/>
</linearGradient>
<linearGradient id="paint4_linear_1457_1129" x1="329.918" y1="77.0468" x2="372.725" y2="77.0468" gradientUnits="userSpaceOnUse">
<stop stop-color="#FFFB03"/>
<stop offset="1" stop-color="#FF7006"/>
</linearGradient>
<linearGradient id="paint5_linear_1457_1129" x1="379.067" y1="80.6141" x2="401.748" y2="80.6141" gradientUnits="userSpaceOnUse">
<stop stop-color="#FFFB03"/>
<stop offset="1" stop-color="#FF7006"/>
</linearGradient>
<linearGradient id="paint6_linear_1457_1129" x1="299.91" y1="80.6141" x2="322.59" y2="80.6141" gradientUnits="userSpaceOnUse">
<stop stop-color="#FFFB03"/>
<stop offset="1" stop-color="#FF7006"/>
</linearGradient>
<linearGradient id="paint7_linear_1457_1129" x1="188.28" y1="182.18" x2="188.28" y2="193.788" gradientUnits="userSpaceOnUse">
<stop stop-color="#3D4E59"/>
<stop offset="0.9963" stop-color="#5D6A72"/>
</linearGradient>
<linearGradient id="paint8_linear_1457_1129" x1="188.331" y1="184.172" x2="188.331" y2="34.3597" gradientUnits="userSpaceOnUse">
<stop offset="0.4321" stop-color="#2D3848"/>
<stop offset="0.6006" stop-color="#3A454F" stop-opacity="0.7003"/>
<stop offset="0.875" stop-color="#515D66" stop-opacity="0.2123"/>
<stop offset="0.9944" stop-color="#5D6A72" stop-opacity="0"/>
</linearGradient>
<linearGradient id="paint9_linear_1457_1129" x1="174.543" y1="186.023" x2="144.891" y2="226.692" gradientUnits="userSpaceOnUse">
<stop stop-color="#B1C4B9"/>
<stop offset="1" stop-color="#DFEDE6"/>
</linearGradient>
<linearGradient id="paint10_linear_1457_1129" x1="166.523" y1="191.255" x2="177.027" y2="191.255" gradientUnits="userSpaceOnUse">
<stop stop-color="#94C23B"/>
<stop offset="1" stop-color="#468E53"/>
</linearGradient>
<linearGradient id="paint11_linear_1457_1129" x1="204.022" y1="190.327" x2="230.114" y2="224.281" gradientUnits="userSpaceOnUse">
<stop stop-color="#B1C4B9"/>
<stop offset="1" stop-color="#DFEDE6"/>
</linearGradient>
<linearGradient id="paint12_linear_1457_1129" x1="199.793" y1="191.255" x2="210.296" y2="191.255" gradientUnits="userSpaceOnUse">
<stop stop-color="#94C23B"/>
<stop offset="1" stop-color="#468E53"/>
</linearGradient>
<linearGradient id="paint13_linear_1457_1129" x1="163.043" y1="324.043" x2="232.252" y2="324.043" gradientUnits="userSpaceOnUse">
<stop stop-color="#B1C4B9"/>
<stop offset="0.5044" stop-color="#CADBD2"/>
<stop offset="1" stop-color="#DFEDE6"/>
</linearGradient>
<linearGradient id="paint14_linear_1457_1129" x1="218.816" y1="324.091" x2="174.133" y2="324.091" gradientUnits="userSpaceOnUse">
<stop stop-color="#94C23B"/>
<stop offset="1" stop-color="#468E53"/>
</linearGradient>
<linearGradient id="paint15_linear_1457_1129" x1="176.857" y1="324.065" x2="178.913" y2="324.065" gradientUnits="userSpaceOnUse">
<stop stop-color="#3D4E59"/>
<stop offset="0.9963" stop-color="#5D6A72"/>
</linearGradient>
<linearGradient id="paint16_linear_1457_1129" x1="163.043" y1="284.744" x2="232.252" y2="284.744" gradientUnits="userSpaceOnUse">
<stop stop-color="#B1C4B9"/>
<stop offset="0.5044" stop-color="#CADBD2"/>
<stop offset="1" stop-color="#DFEDE6"/>
</linearGradient>
<linearGradient id="paint17_linear_1457_1129" x1="218.816" y1="284.801" x2="174.133" y2="284.801" gradientUnits="userSpaceOnUse">
<stop stop-color="#94C23B"/>
<stop offset="1" stop-color="#468E53"/>
</linearGradient>
<linearGradient id="paint18_linear_1457_1129" x1="176.857" y1="284.765" x2="178.913" y2="284.765" gradientUnits="userSpaceOnUse">
<stop stop-color="#3D4E59"/>
<stop offset="0.9963" stop-color="#5D6A72"/>
</linearGradient>
<linearGradient id="paint19_linear_1457_1129" x1="306.138" y1="234.346" x2="419.295" y2="234.346" gradientUnits="userSpaceOnUse">
<stop stop-color="#B1C4B9"/>
<stop offset="0.5044" stop-color="#CADBD2"/>
<stop offset="1" stop-color="#DFEDE6"/>
</linearGradient>
<linearGradient id="paint20_linear_1457_1129" x1="398.488" y1="188.184" x2="330.101" y2="188.184" gradientUnits="userSpaceOnUse">
<stop stop-color="#94C23B"/>
<stop offset="1" stop-color="#468E53"/>
</linearGradient>
<linearGradient id="paint21_linear_1457_1129" x1="334.293" y1="188.138" x2="337.438" y2="188.138" gradientUnits="userSpaceOnUse">
<stop stop-color="#3D4E59"/>
<stop offset="0.9963" stop-color="#5D6A72"/>
</linearGradient>
<linearGradient id="paint22_linear_1457_1129" x1="398.488" y1="220.202" x2="330.101" y2="220.202" gradientUnits="userSpaceOnUse">
<stop stop-color="#94C23B"/>
<stop offset="1" stop-color="#468E53"/>
</linearGradient>
<linearGradient id="paint23_linear_1457_1129" x1="398.488" y1="252.273" x2="330.101" y2="252.273" gradientUnits="userSpaceOnUse">
<stop stop-color="#94C23B"/>
<stop offset="1" stop-color="#468E53"/>
</linearGradient>
<linearGradient id="paint24_linear_1457_1129" x1="398.488" y1="284.291" x2="330.101" y2="284.291" gradientUnits="userSpaceOnUse">
<stop stop-color="#94C23B"/>
<stop offset="1" stop-color="#468E53"/>
</linearGradient>
<linearGradient id="paint25_linear_1457_1129" x1="398.488" y1="315.504" x2="330.101" y2="315.504" gradientUnits="userSpaceOnUse">
<stop stop-color="#94C23B"/>
<stop offset="1" stop-color="#468E53"/>
</linearGradient>
<linearGradient id="paint26_linear_1457_1129" x1="334.293" y1="315.602" x2="337.438" y2="315.602" gradientUnits="userSpaceOnUse">
<stop stop-color="#3D4E59"/>
<stop offset="0.9963" stop-color="#5D6A72"/>
</linearGradient>
<linearGradient id="paint27_linear_1457_1129" x1="334.293" y1="220.442" x2="337.438" y2="220.442" gradientUnits="userSpaceOnUse">
<stop stop-color="#3D4E59"/>
<stop offset="0.9963" stop-color="#5D6A72"/>
</linearGradient>
<linearGradient id="paint28_linear_1457_1129" x1="334.292" y1="252.144" x2="337.437" y2="252.144" gradientUnits="userSpaceOnUse">
<stop stop-color="#3D4E59"/>
<stop offset="0.9963" stop-color="#5D6A72"/>
</linearGradient>
<linearGradient id="paint29_linear_1457_1129" x1="334.293" y1="284.368" x2="337.438" y2="284.368" gradientUnits="userSpaceOnUse">
<stop stop-color="#3D4E59"/>
<stop offset="0.9963" stop-color="#5D6A72"/>
</linearGradient>
<clipPath id="clip0_1457_1129">
<rect width="482" height="375" fill="white"/>
</clipPath>
</defs>
</svg>
