<svg width="412" height="330" viewBox="0 0 412 330" fill="none" xmlns="http://www.w3.org/2000/svg">
<g clip-path="url(#clip0_1457_1295)">
<path d="M107.031 170.669L63.5614 196.03L18.8516 170.172L56.1201 148.479L107.031 170.669Z" fill="#15C5F3"/>
<path d="M109.947 154.756L109.885 169.55L63.5625 196.527V181.733L109.947 154.756Z" fill="url(#paint0_linear_1457_1295)"/>
<path d="M63.5623 181.733V196.527L16 169.053V154.259L63.5623 181.733Z" fill="#468E53"/>
<path d="M109.946 154.756L63.5623 181.733L16 154.259L62.3841 127.22L109.946 154.756Z" fill="#C7E2D4"/>
<path d="M87.9328 153.638L62.6323 168.369C61.2681 169.115 59.6558 169.177 58.2916 168.369L39.1922 157.367C38.014 156.684 38.014 154.943 39.1922 154.259L64.4927 139.528C65.8569 138.782 67.4692 138.72 68.8334 139.528L87.9328 150.53C89.111 151.276 89.111 152.954 87.9328 153.638Z" fill="#B6D3C3"/>
<path d="M88.367 153.265C88.243 153.141 88.119 153.016 87.933 152.892L68.8336 141.89C67.4694 141.144 65.8571 141.144 64.4929 141.89L39.1925 156.622C39.0064 156.746 38.8824 156.87 38.7584 156.994C38.0763 156.186 38.2003 154.881 39.1925 154.26L64.4929 139.528C65.8571 138.72 67.4694 138.72 68.8336 139.528L87.933 150.53C88.9251 151.152 89.0492 152.457 88.367 153.265Z" fill="#91BAA3"/>
<path d="M71.1284 182.479L67.8418 184.344V189.628L71.1284 187.763V182.479Z" fill="white"/>
<path d="M76.5234 179.434L73.2988 181.298V186.582L76.5234 184.779V179.434Z" fill="white"/>
<path d="M81.4843 176.574L78.5078 178.315V183.598L81.4843 181.858V176.574Z" fill="white"/>
<g opacity="0.5">
<path d="M27.2851 153.7C27.0991 153.7 26.9131 153.575 26.8511 153.451C26.7271 153.202 26.7891 152.891 27.0371 152.705L61.4531 132.752C61.7012 132.628 62.0112 132.69 62.1973 132.939C62.3213 133.187 62.2593 133.498 62.0112 133.684L27.5952 153.637C27.4712 153.7 27.4092 153.7 27.2851 153.7Z" fill="white"/>
</g>
<g opacity="0.5">
<path d="M64.3066 175.517C64.1206 175.517 63.9346 175.393 63.8726 175.269C63.7485 175.02 63.8105 174.709 64.0586 174.523L98.4746 154.57C98.7226 154.446 99.0327 154.508 99.2187 154.756C99.4048 155.005 99.2807 155.316 99.0327 155.502L64.6167 175.455C64.4307 175.455 64.3686 175.517 64.3066 175.517Z" fill="white"/>
</g>
<path d="M173.445 35.7413L152.795 47.6758V23.869L173.445 11.9346V35.7413Z" fill="#313C46"/>
<path d="M152.795 23.8689L132.207 11.9345L152.795 0L173.444 11.9345L152.795 23.8689Z" fill="#C7E2D4"/>
<path d="M152.795 47.6758L132.207 35.7413V11.9346L152.795 23.869V47.6758Z" fill="url(#paint1_linear_1457_1295)"/>
<path d="M145.415 34.8088L139.648 31.4522V24.8013L145.415 28.1578V34.8088Z" fill="white"/>
<path d="M278.429 330C352.198 330 412 270.056 412 196.11C412 122.165 352.198 62.2207 278.429 62.2207C204.659 62.2207 144.857 122.165 144.857 196.11C144.857 270.056 204.659 330 278.429 330Z" fill="url(#paint2_radial_1457_1295)"/>
<path d="M278.429 330C352.198 330 412 270.056 412 196.11C412 122.165 352.198 62.2207 278.429 62.2207C204.659 62.2207 144.857 122.165 144.857 196.11C144.857 270.056 204.659 330 278.429 330Z" fill="url(#paint3_linear_1457_1295)"/>
<path d="M302.18 213.701C342.66 213.701 375.476 180.807 375.476 140.23C375.476 99.6526 342.66 66.7583 302.18 66.7583C261.699 66.7583 228.883 99.6526 228.883 140.23C228.883 180.807 261.699 213.701 302.18 213.701Z" fill="url(#paint4_linear_1457_1295)"/>
<path d="M277.125 62.283C278.179 62.283 279.233 62.283 280.288 62.283C279.109 62.2208 277.807 62.283 277.125 62.283Z" fill="#068743"/>
<path d="M235.082 78.3819L234.338 78.817C233.718 79.0035 233.656 79.0035 232.168 79.6872L231.672 80.0602C231.548 80.1845 231.424 80.2466 231.3 80.371L230.307 80.9925C229.811 81.1169 229.811 81.1169 229.191 80.9304C228.943 80.6196 228.943 80.6196 228.819 80.4331C228.943 80.3088 228.943 80.3088 229.005 80.1223C228.633 79.8115 227.765 80.1223 227.393 80.3088C226.835 80.3088 226.835 80.3088 226.525 80.3088C226.463 80.3088 226.463 80.3088 226.463 80.3088C225.967 80.3088 224.044 80.9925 224.044 80.9925C224.044 80.8682 224.044 80.8682 223.61 80.8061C223.61 80.7439 223.548 80.6817 223.61 80.6196C223.176 80.371 223.176 80.371 223.858 79.6872C223.858 79.6251 223.858 79.6251 223.858 79.5629C224.292 79.1899 224.292 79.1899 224.354 79.0656C224.23 79.0656 224.044 79.0656 223.92 79.0656C223.92 79.0656 223.858 79.0656 223.858 79.0035C223.982 78.5684 223.982 78.444 227.455 76.3928L227.951 76.0199C228.261 75.8334 228.571 75.6469 228.881 75.4604C228.943 75.3983 228.943 75.3983 228.943 75.3983C229.005 75.0875 229.067 74.8388 231.3 73.8443L232.044 73.5335L232.416 73.4092C233.036 73.1606 233.16 73.0984 233.346 73.0362L234.338 72.6011L234.896 72.4147L235.33 72.2903C235.392 72.2903 235.392 72.2903 237.253 71.6066C237.377 71.6066 237.439 71.5444 237.563 71.5444V71.6066C237.439 71.7309 237.191 71.8552 237.067 71.9795L236.819 72.2282L236.881 72.2903C236.943 72.2903 237.005 72.2903 237.067 72.2903L237.191 72.3525L237.439 72.4147L237.253 72.6633L237.501 72.6011H237.687C237.873 72.6633 237.935 72.6633 238.121 72.6011L238.183 72.6633C238.121 72.7254 238.059 72.7876 237.997 72.8498C238.059 72.8498 238.183 72.8498 238.307 72.7876L239.175 72.6633L239.981 72.2903L241.035 71.7931L241.159 71.8552L240.291 72.3525L240.415 72.4147C239.113 73.1606 239.113 73.1606 238.121 73.9686L238.307 74.0308L238.245 74.2173L237.315 74.9632L236.695 75.3983L236.136 75.9577L235.888 76.3306L235.578 76.5793L235.454 76.8901L235.516 77.0144C235.702 77.1387 235.95 77.2009 236.074 77.4495C235.95 77.5738 235.826 77.6981 235.764 77.7603L235.082 78.3819Z" fill="#468E53"/>
<path d="M238.37 70.9848C237.378 71.4199 237.378 71.4199 233.781 72.4766C233.223 72.6631 233.223 72.6631 231.673 73.3468L231.115 73.5954L230.185 73.9684L229.564 74.2792L228.944 74.59C228.944 74.59 227.704 75.4602 226.588 75.3359V75.2737L226.774 75.0872L227.332 74.7764L227.89 74.4657L228.076 74.2792L228.386 74.0927L228.882 73.8441L230.185 73.2225L230.929 72.8495L231.611 72.5387L232.479 72.2279L233.223 71.9171L234.153 71.5442L234.959 71.2334L235.641 70.9848C235.765 70.9226 238.06 69.9902 238.618 69.9902C238.618 69.9902 238.618 70.0524 238.68 70.0524H238.742C238.68 70.1146 238.618 70.1767 238.556 70.2389C238.866 70.5497 239.238 70.2389 239.61 70.3632C239.424 70.5497 239.176 70.6118 238.928 70.7983V70.8605C238.928 70.8605 238.99 70.8605 238.99 70.9226C239.052 70.9226 239.114 70.8605 239.176 70.8605C238.804 70.7983 238.556 70.9226 238.37 70.9848Z" fill="#468E53"/>
<path d="M252.447 65.9502C249.408 66.7583 249.408 66.7583 248.602 66.9448L248.416 67.0069H248.354L248.106 67.0691L247.734 67.1313L247.362 67.1934C246.928 67.3177 246.494 67.4421 245.998 67.5664L245.191 67.6907C245.005 67.6907 245.005 67.6907 244.695 67.6907V67.6285L245.315 67.3799L246.246 67.0691C247.3 66.7583 250.462 66.0746 250.648 66.0746C250.648 66.0746 250.586 66.0746 250.586 66.1367C251.02 66.0124 251.579 65.8881 252.013 65.8259C252.633 65.7016 252.757 65.6395 252.819 65.6395C253.067 65.6395 253.253 65.5151 253.501 65.5151C253.439 65.6395 253.191 65.6395 253.067 65.7016C252.881 65.8259 252.695 65.8881 252.447 65.9502Z" fill="#468E53"/>
<path d="M250.09 68.1878C250.4 68.0635 250.834 67.877 251.144 67.6905L251.206 67.5662H250.896C250.896 67.5662 250.834 67.5041 250.772 67.5041L251.888 67.0068L252.074 66.9446L252.136 66.8203H252.012L251.702 66.8825C248.601 67.8148 248.601 67.8149 248.229 67.9392H248.043V67.877L248.477 67.6905L248.912 67.4419L249.408 67.1933H249.16H248.912H248.974C248.788 67.1311 246.741 67.8149 246.059 68.0635C245.687 68.1878 245.191 68.3121 244.757 68.4364C243.641 68.8094 243.269 68.9337 243.207 69.058C243.393 69.058 243.517 69.058 243.703 69.058C243.703 69.058 243.703 69.058 243.703 69.1202C243.765 69.1823 243.765 69.1823 244.075 69.1202C244.013 69.1823 243.951 69.2445 243.827 69.3067C243.827 69.3067 242.896 69.6796 242.896 69.8661C242.958 69.9282 242.958 69.9282 243.393 69.8039C244.819 69.431 244.881 69.4931 244.943 69.4931C245.501 69.431 245.935 69.1823 246.493 69.1823C246.803 69.1823 247.051 69.3067 247.361 69.3067C247.423 69.3067 247.485 69.3067 247.547 69.2445C247.857 69.1202 247.919 69.1202 247.981 69.1202C247.981 68.9959 248.539 68.8715 250.09 68.1878Z" fill="#468E53"/>
<path d="M259.019 64.7692C258.336 64.8936 257.716 65.0179 257.034 65.2044C257.034 65.2044 257.034 65.2044 256.972 65.2044C256.972 65.2044 256.972 65.2044 256.91 65.2044H256.848H256.786C256.6 65.2665 256.352 65.3287 256.166 65.3908C256.104 65.3908 256.042 65.453 255.98 65.453C255.918 65.453 255.856 65.453 255.856 65.5151C255.794 65.5151 255.794 65.5151 255.732 65.5773H255.67C255.67 65.5773 255.67 65.5773 255.608 65.5773L255.236 65.6395C255.174 65.6395 255.174 65.6395 255.112 65.6395L255.05 65.5773H254.988L254.616 65.6395H254.43L254.802 65.453C255.298 65.3287 255.298 65.3287 256.166 65.1422C258.026 64.7071 258.026 64.7071 258.398 64.5828C259.081 64.4584 259.701 64.272 260.383 64.272C260.321 64.4584 260.259 64.5206 259.019 64.7692Z" fill="#068743"/>
<path d="M253.562 68.561L252.694 68.8718C252.384 68.934 252.322 68.934 252.322 68.8718C251.826 68.934 251.33 69.3069 250.771 69.0583C250.896 68.8097 251.33 68.4367 251.454 68.3746L251.516 68.2503L251.454 68.1881C251.516 68.0016 251.702 67.9395 252.136 67.753L252.26 67.6287L252.88 67.3179C254.182 66.8206 254.616 66.6963 254.802 66.6963C254.802 66.6963 254.802 66.6963 254.802 66.7584C254.678 66.8206 254.43 66.9449 254.306 67.0071L253.872 67.1936L253.686 67.3179H254.058L255.05 67.0071C256.104 66.7584 256.104 66.7584 256.787 66.6963V66.8206L256.476 67.0071L255.98 67.1936L255.67 67.4422L255.174 67.6908L254.988 67.8151L254.616 68.0638L253.562 68.561Z" fill="#468E53"/>
<path d="M256.166 66.0747H255.98V66.0125L255.918 65.9504L256.042 65.8882L256.724 65.7018C257.096 65.5774 257.22 65.5774 257.22 65.5774C257.406 65.5774 257.592 65.4531 257.778 65.4531C257.84 65.4531 257.902 65.4531 257.902 65.4531C257.84 65.4531 257.84 65.5153 257.778 65.5153C257.344 65.6396 256.972 65.7639 256.538 65.9504L256.166 66.0747Z" fill="#068743"/>
<path d="M260.445 65.3908L259.577 65.5773C259.763 65.3908 259.763 65.3908 260.445 65.08C260.383 65.08 260.383 65.08 259.825 65.1422H259.515C259.515 65.1422 259.515 65.1422 259.453 65.1422C259.515 65.0179 259.515 65.0179 260.941 64.6449C260.879 64.6449 260.879 64.6449 260.817 64.6449C261.189 64.5206 261.499 64.4585 261.872 64.3341C262.244 64.2098 262.616 64.1477 262.988 64.0233C262.864 64.0233 262.74 64.0855 262.616 64.0855C262.678 64.0233 262.74 64.0233 263.98 63.7747C264.042 63.7747 264.104 63.7747 264.166 63.7747C264.848 63.6504 264.91 63.6504 264.972 63.6504C264.91 63.7125 264.786 63.7125 264.662 63.7747L264.538 63.8369L264.29 63.899L263.732 64.0855L263.112 64.272L262.802 64.3963L262.368 64.5206L261.934 64.6449L261.251 64.8936L260.879 65.08L260.445 65.3908Z" fill="#068743"/>
<path d="M243.887 71.4202C243.391 71.6689 242.895 71.9175 242.709 71.9797C242.647 71.9797 242.585 71.9796 242.523 72.0418C242.399 72.104 242.027 72.2904 241.655 72.4769C241.531 72.5391 241.407 72.4769 241.283 72.4769L240.973 72.5391L239.98 72.8499L240.166 72.6012L240.042 72.5391L240.911 72.0418L241.283 71.9797L242.213 71.5445C242.771 71.2337 243.391 70.923 243.949 70.6743H244.073H244.383L244.569 70.7365L244.383 70.923L243.887 71.4202Z" fill="#468E53"/>
<path d="M243.578 74.7767C242.647 75.274 241.593 75.4605 240.663 75.8956L240.043 76.0199V75.7091L240.477 75.0875L240.787 74.8389V74.7146V74.5903L241.097 74.2173L241.345 73.9687L241.221 73.8444L241.035 73.6579C241.035 73.6579 241.717 73.0363 242.523 73.1606C242.647 73.1606 242.709 73.1606 242.771 73.1606C244.136 72.6633 244.136 72.6633 244.322 72.539L244.632 72.2904C246.306 71.2959 246.306 71.2958 247.546 71.2337L248.228 71.1094H248.476L248.414 71.2958L248.104 71.6066L247.546 71.9174L246.802 72.3525C246.12 72.7255 245.872 72.8498 245.81 73.2849L244.322 74.2795C244.136 74.2173 243.64 74.5903 243.578 74.7767C243.578 74.7146 243.578 74.7146 243.578 74.7767Z" fill="#468E53"/>
<path d="M252.385 71.6069C251.703 72.1042 251.703 72.1042 250.09 72.8501L249.78 72.9123L249.222 73.0987C247.858 73.596 247.734 73.6582 247.362 73.6582L246.928 73.7825L246.494 73.9068L246.308 73.8447L246.184 73.7203L246.742 73.2852L247.61 72.7258L248.85 71.9177L249.408 71.6069L249.966 71.3583L250.772 70.9854H250.958L251.517 71.0475H252.013C252.261 71.0475 252.571 70.9854 252.819 70.9854C252.943 70.9854 252.943 71.0475 252.943 71.1097C253.005 71.1097 253.005 71.1097 253.129 71.0475C253.067 70.9854 252.509 71.5448 252.385 71.6069Z" fill="#468E53"/>
<path d="M253.997 69.493L253.253 69.8038L251.827 69.9281C251.765 69.9281 251.703 69.9281 251.641 69.9281L252.323 69.493L252.757 69.3065C253.377 68.9335 254.803 68.7471 254.803 68.7471C254.865 68.7471 254.989 68.7471 255.051 68.7471C255.113 68.9335 253.997 69.4308 253.997 69.493Z" fill="#468E53"/>
<path d="M245.438 93.4867L244.756 93.7353C243.516 93.5489 242.276 93.3002 241.036 93.1138H240.602C239.733 93.1138 239.609 93.1137 238.803 94.1083C238.617 94.3569 238.183 94.2326 237.873 94.2948L237.439 93.984L237.253 93.5489C236.385 93.611 236.199 93.1759 236.137 93.0516C238.121 91.1247 238.121 91.1247 238.989 90.0058C238.989 90.0058 238.989 90.0058 238.927 90.068C239.051 89.8193 239.423 89.6329 239.733 89.5086C240.043 89.3842 240.353 89.0113 240.539 88.7626L241.222 88.5762L242.152 88.7005L242.648 89.0734L242.896 89.9437C243.64 90.1301 243.64 90.1301 243.64 90.8139C243.702 90.876 243.826 90.876 243.95 90.9382L244.198 91.6219L244.074 91.9949L244.88 92.4922L245.438 92.6165L245.748 93.1138L245.438 93.4867Z" fill="#468E53"/>
<path d="M241.347 96.4703L240.913 96.5325C240.541 96.5325 239.983 96.5946 239.797 96.4703C239.735 96.4082 239.735 96.4082 238.557 96.5325L238.309 96.0974C238.433 95.7244 238.433 95.7244 238.495 95.6623C238.681 95.5379 239.053 95.6001 239.115 95.6001C239.301 95.6623 239.549 95.4136 239.735 95.2893C239.921 95.165 240.107 95.1028 240.231 94.9785L241.409 95.0407L241.905 95.165L241.347 96.4703Z" fill="#468E53"/>
<path d="M253.872 90.627C253.872 90.6892 253.81 90.7513 253.81 90.7513C253.81 90.8135 253.748 90.8135 253.748 90.8756C253.748 90.8756 253.748 90.9378 253.686 90.9378V91C253.686 91 253.686 91 253.686 91.0621L253.128 91.4972L251.019 91.808H250.399L249.283 91.8702L249.407 91.4972C249.655 90.9378 249.841 90.6892 249.841 90.6892C250.027 90.5648 250.027 90.5648 250.213 90.5648C250.461 90.5648 250.461 90.5648 251.33 89.8811L251.826 89.6325V89.5703H251.888C252.136 89.5703 252.384 89.7568 252.632 89.7568C252.818 89.7568 253.004 89.7568 253.128 89.7568C253.128 89.7568 253.128 89.7568 253.19 89.7568C253.438 89.8189 253.624 89.9433 253.81 89.9433C253.872 90.2541 253.872 90.254 253.934 90.3784C253.996 90.4405 253.996 90.4405 253.872 90.627Z" fill="#468E53"/>
<path d="M257.592 84.5357C257.53 84.5979 257.468 84.7222 257.468 84.7844C257.22 84.8465 256.848 84.9087 256.6 84.9087L255.174 84.9709L254.926 84.5979L255.05 84.1006L254.988 83.4791C255.174 83.1061 255.36 83.1061 255.422 83.0439C255.422 83.0439 255.422 83.0439 255.484 83.0439C255.732 83.1683 255.98 83.1683 256.786 83.1683L257.778 83.2926L258.15 83.4169C257.964 83.7277 257.902 83.9763 257.592 84.5357Z" fill="#468E53"/>
<path d="M263.359 69.804C262.739 70.3634 262.739 70.3634 261.932 70.3634L261.622 70.4256L261.126 70.4877H260.692H260.258C259.204 70.7985 259.204 70.7985 258.832 70.9228C258.646 70.985 258.584 70.985 258.398 70.985C258.15 70.985 257.84 70.985 257.592 70.985H257.344H256.972C256.848 70.985 256.786 70.985 256.662 70.985H256.476L256.165 70.8607L255.979 70.7985L255.607 70.612C254.801 70.1148 254.801 70.1148 254.677 70.1148C254.491 70.1769 254.491 70.1148 254.367 69.9283L254.491 69.7418L255.173 69.3689L255.793 68.9959L256.352 68.6851L256.786 68.3743C256.91 68.25 257.096 68.1257 256.91 67.8149C256.662 67.7527 256.414 67.8149 256.103 67.7527C256.103 67.6906 256.166 67.6284 256.228 67.5663L256.972 67.2555L257.53 67.1312C257.84 67.069 258.212 67.0068 258.522 67.0068H258.77H259.142C259.204 67.0068 259.266 67.0068 259.266 67.0068C259.39 67.0068 259.452 67.1312 259.514 67.1933L259.638 67.2555L259.328 67.5041C258.708 67.6906 258.522 67.8149 258.336 68.0635C258.398 68.0635 258.46 68.1257 258.46 68.1257L257.654 68.6851L257.716 68.9338C257.902 68.9959 258.026 69.1202 258.212 69.1824C258.15 69.2445 258.026 69.3067 257.964 69.431C258.026 69.4932 258.026 69.4932 260.444 69.1202H260.754C261.002 69.431 261.995 69.3067 262.367 69.2445H262.801H263.049C263.545 69.1824 263.545 69.2445 263.607 69.3067L263.545 69.3689C263.545 69.3689 263.607 69.431 263.669 69.431C263.793 69.2445 263.669 69.5553 263.359 69.804Z" fill="#468E53"/>
<path d="M263.299 65.0799C262.555 65.3286 262.555 65.3286 261.563 65.7015C261.563 65.7015 261.501 65.7015 261.501 65.7637H261.439H261.377C261.377 65.7637 261.377 65.7637 261.315 65.7637L260.447 65.9502L260.385 65.888L260.137 65.8258L260.509 65.7015L261.191 65.3907C261.315 65.3286 261.315 65.3286 261.377 65.3286C261.377 65.3286 261.377 65.3286 261.315 65.3286L262.183 65.0178L262.927 64.8313C263.361 64.707 263.733 64.6448 264.167 64.5205C264.167 64.5205 264.105 64.5205 264.105 64.5827C264.167 64.5827 264.291 64.5827 264.353 64.5827C264.477 64.5827 264.664 64.5827 264.788 64.5827C264.726 64.5827 263.299 65.0799 263.299 65.0799Z" fill="#468E53"/>
<path d="M269.065 64.2719L268.693 64.3962C268.135 64.5827 268.135 64.5827 267.577 64.6449C266.895 64.7692 266.275 65.1422 265.593 65.2043C265.221 65.2665 264.849 65.3908 264.477 65.4529C264.291 65.4529 264.291 65.4529 264.229 65.4529V65.3908C264.229 65.3908 264.229 65.3908 263.732 65.3286V65.2665C263.918 65.2043 264.105 65.08 264.291 65.0178C265.159 64.707 266.089 64.4584 267.019 64.1476C266.957 64.0855 266.957 64.0855 266.895 64.0855C266.833 64.0855 266.709 64.0855 266.647 64.0855C266.647 64.0855 267.329 63.7125 270.802 63.1531C273.096 62.8423 273.096 62.8423 273.406 62.8423C273.282 62.8423 273.158 62.9044 273.034 62.9044L272.724 62.9666L272.6 63.0288L272.414 63.0909H272.352L271.36 63.3396L271.112 63.4639L271.174 63.526L270.864 63.6503L269.996 63.899C269.251 64.2098 269.251 64.2098 269.065 64.2719Z" fill="#068743"/>
<path d="M279.731 62.5939C279.111 62.7182 278.366 63.029 278.366 63.029C277.808 63.1533 277.25 63.3398 276.692 63.4641C276.63 63.4641 276.63 63.4641 276.63 63.4641C276.258 63.5263 275.886 63.7128 275.576 63.8371L274.832 64.0857L273.964 64.3343C273.654 64.4587 273.282 64.5208 272.972 64.6451C272.847 64.6451 272.847 64.6451 272.847 64.6451C272.661 64.7073 272.661 64.7073 271.731 65.2046L271.297 65.391C270.925 65.5153 270.863 65.5154 270.677 65.5775C270.305 65.6397 267.639 66.8207 266.956 67.1936C266.15 67.6909 264.972 68.4368 263.918 68.0639C263.918 68.0639 263.918 68.0017 263.856 68.0017C263.67 68.0017 263.422 68.0017 263.236 67.9395C262.988 67.9395 262.678 67.7531 262.43 67.7531C262.43 67.6909 262.43 67.6909 262.802 67.3801C262.12 67.3801 261.375 67.7531 260.693 67.4423C260.755 67.1315 261.127 67.0072 261.748 66.8207L263.298 66.3856C263.546 66.3234 263.546 66.3234 264.724 65.7018C264.724 65.7018 264.724 65.7018 264.786 65.7018H264.848C264.848 65.7018 264.91 65.7018 264.91 65.6397C264.972 65.6397 264.972 65.6397 265.034 65.5775C265.84 65.3289 266.646 65.1424 267.391 64.9559C267.453 64.9559 267.453 64.9559 267.453 64.9559C267.453 64.9559 267.453 64.9559 267.515 64.9559H267.577H267.639C268.197 64.7694 268.755 64.6451 269.313 64.4587C269.499 64.3965 269.685 64.3343 269.871 64.2722C269.871 64.2722 269.871 64.2722 269.809 64.2722L269.871 64.21C271.235 63.7128 272.785 63.7749 274.15 63.2776C274.088 63.2776 274.088 63.2776 274.026 63.2776C273.778 63.2776 273.096 63.2155 273.096 63.2155C273.034 63.2155 272.909 63.2155 272.847 63.1533C272.847 63.1533 272.91 63.1533 272.91 63.0912C273.158 63.029 273.468 63.1533 273.716 62.9047C274.77 62.7182 275.328 62.6561 276.258 62.5939H276.568H276.94H277.25H277.498C277.808 62.5939 278.18 62.5317 278.49 62.5317C278.739 62.5317 278.925 62.5317 279.173 62.5317C279.111 62.5317 279.111 62.5317 279.049 62.5317C279.111 62.5317 279.235 62.5317 279.297 62.5317C279.421 62.5317 279.607 62.5317 279.731 62.5317C279.731 62.5317 279.793 62.5317 279.855 62.5317C279.855 62.5317 279.855 62.5317 279.855 62.5939V62.6561L279.793 62.7182L279.731 62.5939Z" fill="#468E53"/>
<path d="M262.244 72.9743C261.996 73.223 261.934 73.223 261.5 73.4094L261.376 73.3473H261.252H260.694C260.632 73.3473 260.57 73.3473 260.57 73.3473L260.384 73.1608L260.012 72.85C260.136 72.4771 260.694 71.9798 260.88 71.9798C261.128 71.9798 261.314 71.8555 261.562 71.9176C261.562 71.9176 261.562 71.9176 261.562 71.8555C261.562 71.8555 261.624 72.0419 261.624 72.1663C261.624 72.1663 261.624 72.1663 261.624 72.2284C261.81 72.3527 262.368 72.4149 262.368 72.4149C262.43 72.4149 262.43 72.4771 262.492 72.5392C262.492 72.5392 262.554 72.5392 262.554 72.4771C262.554 72.6014 262.244 72.85 262.43 72.9122C262.368 72.85 262.306 72.9122 262.244 72.9743Z" fill="#468E53"/>
<path d="M280.288 70.7366C280.226 70.7366 280.226 70.7366 280.288 70.7366V70.7366ZM288.97 63.029L288.412 62.9668L287.791 62.9046L287.419 62.8425H287.357H287.233L286.613 62.7803C287.109 62.9046 287.605 62.9668 288.102 63.0911C288.102 63.0911 288.039 63.0911 288.039 63.1533H287.977L287.729 63.0911L287.357 63.029C286.799 62.9668 286.241 62.8425 285.683 62.7803L284.567 62.656L284.009 62.5938L283.327 62.5317L282.955 62.4695H282.707H282.583H282.397C282.21 62.4695 282.024 62.4695 281.838 62.4074H281.59L280.722 62.3452C280.66 62.3452 280.536 62.3452 280.474 62.3452H280.288H280.35H280.412H280.474C280.66 62.3452 280.846 62.3452 281.032 62.4074H280.97H280.846H280.722H280.598H280.66H280.722H280.784H280.908H281.032H281.156L281.28 62.4695H281.156H281.094V62.5317L281.156 62.5938H281.032L280.908 62.5317C280.846 62.5317 280.722 62.5317 280.598 62.5317H280.536H280.474H280.412H280.35H280.288H280.226C280.164 62.5938 280.04 62.656 279.916 62.656L279.854 62.7182L279.792 62.7803C279.668 62.8425 279.544 62.8425 279.482 62.8425H279.42H279.296L279.172 62.9046C278.676 63.1533 278.676 63.1533 278.428 63.2776L278.056 63.3398L277.808 63.4019L277.622 63.4641C277.56 63.5262 277.498 63.5262 277.374 63.5884C277.56 64.0235 277.498 64.0857 276.816 64.4586C276.567 64.5829 276.381 64.7694 276.133 64.8937L275.947 64.9559L275.823 65.018L275.513 65.1424H275.079C274.645 65.2045 274.645 65.2045 273.777 65.1424C273.715 65.1424 273.715 65.1424 273.653 65.1424H273.529C272.971 65.5153 272.971 65.5153 272.847 65.8261C272.971 65.9504 273.095 66.0126 273.219 66.1369C273.219 66.199 273.219 66.3234 273.157 66.3855C273.219 66.5098 273.405 66.572 273.529 66.6342C274.025 67.753 271.669 67.753 272.227 68.934C273.467 69.307 274.645 68.5611 275.947 68.6232C277.56 68.7475 277.56 68.7475 279.668 70.0529C279.73 70.115 281.838 71.4825 282.086 75.0256C282.086 75.212 282.086 75.212 282.086 75.212C282.086 75.212 282.086 75.212 282.086 75.2742C282.086 75.2742 282.086 75.2742 282.086 75.3364V75.3985V75.4607C282.148 77.2011 282.335 77.2633 283.389 77.5741L283.575 77.5119L283.637 77.2633L283.513 76.766L283.389 76.5795V76.1444C283.885 76.1444 283.885 76.1444 284.443 76.0823C284.691 76.0823 284.753 76.0823 284.815 76.0823C285.187 77.139 285.187 77.139 286.241 77.5741L286.489 77.6984L286.613 77.947V78.4443L286.861 79.501C288.164 82.6089 286.179 84.225 285.249 84.9709L284.877 85.2817V86.4628L284.815 86.7735C284.443 87.5816 284.443 87.5816 285.621 90.5031C285.869 91.0003 287.295 92.6786 287.295 92.7408C288.66 94.2947 289.094 96.5946 290.954 97.7756C293.124 99.1431 294.365 101.629 296.597 102.997L297.465 103.432L298.085 103.743C301.62 103.991 304.162 103.743 303.046 97.527L303.976 91.0003C303.976 91.0003 304.658 89.9436 306.891 89.5085C308.317 89.3842 309.681 89.1977 310.053 88.6383C310.921 87.3951 309.929 86.2763 309.929 85.0331C310.487 84.7845 310.487 84.7845 310.984 84.6601C310.984 84.6601 310.984 84.6601 311.046 84.6601C311.046 84.6601 311.046 84.6601 311.108 84.6601C311.108 84.6601 311.108 84.6601 311.17 84.6601H311.232C312.968 84.5358 312.968 84.5358 313.03 84.4737C313.092 84.1629 313.154 83.8521 313.216 83.6035C314.208 83.3548 314.208 83.3548 314.394 83.2927C314.58 83.2927 314.766 83.2927 314.952 83.2927C315.82 82.7954 316.999 83.9764 317.743 82.8576C318.115 82.3603 318.115 82.3603 316.751 80.8063C313.588 79.7496 313.588 79.7496 313.464 79.6875C313.34 79.5631 313.216 79.4388 313.092 79.3145C314.456 79.1902 315.634 80.2469 316.999 79.8118H317.557C317.619 79.7496 317.619 79.6875 317.681 79.5631C317.495 79.1902 317.371 78.8172 316.378 78.1957L316.006 78.2578L315.634 78.1335L314.642 77.3876L314.084 77.0768L313.278 76.766C312.534 76.1444 310.735 74.5905 309.619 73.5338C309.557 73.4094 309.557 73.4094 309.557 73.4094C309.495 73.1608 309.309 72.9122 309.185 72.7257C309.185 72.6014 309.185 72.6014 309.185 72.6014C309.185 72.5392 309.247 72.4771 309.247 72.3527C309.309 72.2284 309.309 72.2284 309.309 72.2284C309.309 71.9176 309.309 71.8555 308.627 71.4204L307.759 70.8609C306.829 70.3015 306.023 69.6178 305.03 69.1827H304.658H304.41L304.038 69.0583L303.666 68.8719L303.294 68.6854L302.922 68.4989C302.798 68.4368 302.674 68.3746 302.55 68.3124C302.612 68.2503 302.736 68.2503 302.798 68.1881C302.612 67.8773 302.612 67.8773 301.248 67.2557L300.938 67.1936L300.566 67.1314L300.318 67.0693L300.07 67.0071L299.387 66.7585L298.271 66.3234C297.589 66.0126 296.907 65.7018 296.225 65.391C295.667 65.1423 293.993 64.4586 293.869 64.4586C293.558 64.2721 293.124 64.1478 292.814 64.0857L292.132 63.8992L292.008 63.837C291.636 63.7127 291.264 63.6505 290.892 63.5262L290.768 63.4641C289.962 63.2776 289.962 63.2776 289.838 63.2776C289.9 63.2154 289.652 63.1533 288.97 63.029Z" fill="#468E53"/>
<path d="M286.304 80.3712L286.366 80.1226C286.304 79.9361 286.18 79.8118 286.118 79.6874C285.994 79.4388 286.118 79.1902 285.994 79.0037C285.994 79.0037 285.684 78.8172 285.498 78.8794C285.498 78.8794 285.498 78.8794 285.498 78.9415C285.436 79.0659 285.498 79.128 285.436 79.2523C285.436 79.3145 285.374 79.3145 285.312 79.3767C285.25 79.4388 285.188 79.5631 285.064 79.501C284.878 79.4388 284.816 79.2523 284.63 79.2523C284.63 79.2523 284.506 79.2523 284.568 79.4388C284.444 79.501 284.32 79.4388 284.196 79.501C284.01 79.6253 283.886 79.8739 283.638 79.9361C283.514 79.9361 283.452 79.8739 283.328 79.8739C283.266 79.8739 283.142 79.8739 283.08 79.8739C283.018 79.9982 282.956 80.0604 282.832 80.0604H282.77C282.77 80.1226 282.77 80.2469 282.77 80.309L282.894 80.682V80.9928V81.3657L283.018 81.4279C283.576 81.6144 283.576 81.6144 283.576 81.863C283.638 81.863 283.762 81.9252 283.824 81.9252H284.258C284.444 81.9252 284.568 81.9252 284.754 81.9252C285.808 81.863 285.808 81.863 285.746 81.6765C286.056 81.6765 286.118 81.6144 286.118 81.6144C286.242 81.4279 285.994 81.3657 285.994 81.2414L285.87 80.7441L286.304 80.3712Z" fill="#468E53"/>
<path d="M288.289 135.754C288.041 136.625 287.855 136.811 287.731 136.998C287.545 137.246 287.235 137.246 286.987 137.433C286.801 137.433 286.615 137.371 286.429 137.371C285.995 137.433 285.871 137.557 285.623 137.681C285.499 137.619 283.7 137.681 283.7 137.744C283.452 137.744 283.204 137.93 283.018 137.992L282.894 138.552L282.77 139.733L282.398 139.795C280.972 140.292 280.538 140.292 280.228 140.292C279.608 139.733 279.422 139.546 279.422 139.546C278.926 138.925 280.042 137.93 279.174 137.433C279.05 137.371 278.802 137.246 278.367 137.308C277.623 137.371 277.499 137.184 277.189 136.563C275.825 136.873 274.213 136.625 273.903 136.314C273.779 136.19 274.275 134.636 274.275 134.636C274.337 134.511 274.337 134.511 274.089 133.517C274.213 133.392 274.337 133.268 274.461 133.144L275.019 132.833L276.259 132.522L276.817 132.025C277.251 131.466 277.313 131.093 277.313 130.782C277.313 130.782 277.251 130.782 277.251 130.72C277.251 130.533 277.251 130.533 277.809 129.912C278.492 129.228 278.616 128.233 279.298 127.612C279.546 127.612 279.794 127.612 280.042 127.612L280.91 127.487L281.282 127.239L281.778 127.612L282.088 128.482L282.398 129.352L283.08 130.347L283.762 130.533L284.693 130.968L284.755 131.59L286.057 132.087L286.677 132.211L287.049 132.957C287.111 133.392 286.801 133.765 287.049 134.201C287.359 134.698 288.041 134.76 288.475 135.133L288.289 135.754Z" fill="#468E53"/>
<path d="M336.968 93.1137L336.844 93.5488L336.596 93.6109C336.347 93.6731 336.099 93.4866 335.851 93.5488C335.665 93.5488 335.603 93.7974 335.417 93.7974C335.479 94.2325 335.727 94.6055 335.851 94.9784L335.417 95.1027C335.231 95.2892 334.921 95.2892 334.859 95.6622C334.859 95.9729 335.169 96.3459 335.293 96.6567V97.154C333.929 97.2161 333.929 97.2161 333.805 97.5891C333.619 97.5269 333.309 97.4026 333.123 97.3404L332.317 96.9675C331.697 96.7189 331.201 96.1594 331.015 95.9729C330.829 95.7243 330.704 95.6 330.332 95.7865C330.084 95.6622 329.712 95.5378 329.402 95.4757C328.472 94.2325 328.472 94.2325 328.1 93.7974L328.162 93.8596C327.79 93.5488 327.294 93.4245 327.046 92.9893C326.55 92.2434 326.55 92.2434 326.426 92.1191C326.426 92.1191 324.875 91.0003 324.255 90.8759C323.635 90.7516 323.635 90.7516 322.953 89.8192L323.325 89.5085L323.573 89.322L324.193 89.2598L324.937 89.5085L326.054 89.8814L327.232 90.13C327.852 90.1922 327.852 90.1922 328.844 89.7571H329.402L329.898 89.5706L330.084 89.3841L330.394 89.0112L330.767 88.8247H331.139L332.007 89.0112L332.689 89.6328L333.247 90.0057C333.247 90.0057 333.247 90.0057 333.309 90.0057H333.371H333.433C333.495 90.0057 333.495 90.0057 334.363 90.6273L334.797 90.7516L335.479 91.0624L335.975 91.6218L336.968 93.1137Z" fill="#468E53"/>
<path d="M235.764 207.113C235.64 207.921 235.33 208.667 235.206 209.475C234.834 209.226 234.648 209.288 234.4 209.475C233.718 209.972 232.602 209.785 231.672 209.723L230.865 209.164L230.121 208.604L229.687 208.045L229.191 207.61L228.137 207.175L227.455 207.05L226.897 206.615L225.657 206.118L224.788 205.994L223.548 205.061L222.06 204.502L221.502 204.378C221.378 204.378 221.192 204.378 221.068 204.378C220.324 204.191 220.2 204.253 219.952 204.378C219.952 204.378 218.463 204.751 215.983 204.378L214.929 204.129L214.309 202.824V202.016C214.929 201.705 215.611 201.518 216.231 201.083C216.417 200.897 216.417 200.897 216.665 200.772C216.789 200.772 216.789 200.772 216.789 200.772C216.789 200.772 216.789 200.772 216.851 200.772H216.913H216.975C219.89 201.021 219.89 201.021 221.626 200.835L223.052 200.959C223.362 201.021 223.362 201.021 226.587 202.14C227.331 202.14 228.571 202.202 228.943 202.699C230.369 204.626 231.858 205.186 232.292 205.434C235.888 206.118 235.888 206.118 235.764 207.113Z" fill="#468E53"/>
<path d="M233.037 214.571C233.037 214.634 233.037 214.634 233.037 214.634V214.696C233.037 214.758 233.037 214.758 233.037 214.82C232.975 215.379 232.727 215.442 232.045 215.566L230.929 215.628L230.123 215.566L229.255 215.442L228.697 215.255C228.697 215.255 228.697 215.255 228.635 215.255H228.573H228.511H228.449H228.387C228.015 215.193 227.767 215.069 227.333 214.882L226.836 214.261L226.65 213.639L226.898 213.328C227.084 213.017 227.27 212.644 227.519 212.396C227.519 212.396 228.635 212.334 229.069 212.334C229.627 212.396 229.627 212.396 230.371 212.271L230.867 212.458C231.177 212.209 232.479 213.017 232.479 213.08C232.541 213.142 233.1 214.074 233.162 214.509C233.038 214.509 233.037 214.509 233.037 214.571Z" fill="#468E53"/>
<path d="M251.517 214.571C251.517 215.131 251.517 215.877 249.161 215.939C248.975 215.939 247.735 215.877 247.673 215.877C246.68 215.814 245.75 215.317 244.696 215.317C243.89 215.317 243.084 215.504 242.278 215.441C242.216 215.441 242.154 215.441 242.092 215.379L238.309 214.944C237.751 215.504 235.581 215.877 235.146 214.26V214.323C234.588 213.639 234.588 213.639 234.402 212.831C234.588 212.769 234.836 212.644 234.96 212.582C236.015 212.52 236.015 212.52 237.255 212.209C237.627 212.147 237.875 211.836 238.247 211.774C238.309 211.774 238.309 211.774 238.309 211.774C238.681 211.588 238.805 211.525 239.239 210.655C239.983 209.163 242.65 209.039 242.712 209.039C243.58 209.101 245.316 209.35 246.867 210.593L247.797 211.152L248.479 211.401C248.851 211.588 249.347 211.65 249.657 211.961C250.029 212.333 250.153 212.955 250.587 213.328C251.269 214.012 251.455 214.136 251.517 214.571Z" fill="#468E53"/>
<path d="M236.51 146.197C236.262 146.632 235.827 147.44 231.487 147.689C231.363 147.689 231.239 147.689 230.805 147.875C229.378 148.248 228.696 149.802 227.332 150.3C227.27 150.3 227.208 150.3 227.146 150.3C226.526 150.3 225.472 150.61 224.293 150.983L223.239 150.673C223.053 150.548 222.743 150.424 222.557 150.3C222.557 150.3 222.557 148.062 224.107 147.875L225.472 147.938C225.596 147.938 225.72 147.938 225.844 147.938C228.2 148.186 228.634 147.875 229.936 147.005L230.185 146.508L230.495 146.011L230.929 145.513H231.921L232.665 145.265L233.595 145.203L234.587 145.265L236.448 145.203L236.572 145.949C236.572 146.011 236.51 146.073 236.51 146.197ZM230.371 141.038C230.185 141.349 230.123 141.349 229.254 141.66C227.332 141.411 227.27 141.535 227.27 141.66L226.836 142.406C226.712 142.841 226.774 143.649 226.402 143.959C225.1 144.954 224.293 144.457 224.231 144.395C224.045 144.146 224.045 143.835 223.859 143.649C223.735 143.462 223.425 143.524 223.301 143.338C223.115 143.089 223.053 142.778 222.929 142.219C223.301 141.597 222.309 140.479 221.751 140.541C218.03 141.1 217.844 142.716 217.844 142.778C217.41 143.959 217.41 143.959 217.038 144.146C216.914 144.208 216.852 144.208 216.79 144.581C216.418 145.886 216.418 145.886 216.232 146.322C216.108 146.694 215.984 147.067 215.86 147.378C215.798 147.44 215.736 147.627 215.674 147.689C215.364 148.062 214.248 147.751 214.062 147.254C213.938 146.881 215.054 142.033 215.116 142.033C215.86 140.789 215.86 140.789 218.526 139.857C218.713 139.235 218.713 139.235 219.519 139.049C219.581 139.049 219.581 139.049 219.581 139.049C219.581 139.049 219.581 139.049 219.643 139.049C219.643 139.049 219.643 139.049 219.705 139.049H219.767C219.891 139.049 220.015 139.049 220.387 139.173C223.487 139.608 223.487 139.608 223.859 139.608C224.169 139.608 224.418 139.484 224.728 139.484C227.146 139.173 227.146 139.173 228.51 139.422H229.874C229.874 139.733 229.874 140.23 229.874 140.541C229.936 140.541 230.061 140.603 230.185 140.603L230.433 140.914C230.433 140.789 230.433 140.914 230.371 141.038ZM221.565 136.19C221.441 136.003 221.255 136.065 221.193 136.128C220.945 136.252 219.767 136.252 219.209 136.252H218.464C218.278 136.252 218.092 136.252 217.906 136.252C217.596 136.19 217.596 136.19 215.984 136.19L215.054 136.5C214.62 136.5 214.124 136.438 213.69 136.438C213.69 136.376 213.69 136.128 213.132 136.376C212.201 136.811 210.341 137.495 210.341 137.495C210.155 137.495 209.969 137.495 209.783 137.495H209.411V136.998C209.783 135.879 209.783 135.879 210.279 135.568C210.961 135.195 211.023 135.009 211.333 134.636C211.395 134.511 211.519 134.325 211.643 134.263C211.643 134.201 211.643 134.201 211.643 134.201C212.201 133.89 212.821 133.641 213.38 133.33C213.69 133.144 213.876 132.833 214.186 132.584C214.186 132.584 214.186 132.584 214.248 132.584H214.31H214.372C214.496 132.584 214.62 132.584 214.992 132.647H214.93C215.116 132.647 215.302 132.709 215.55 132.709C215.984 132.709 216.666 132.398 216.976 132.149L217.41 131.963L217.782 131.776C218.526 132.025 218.526 132.025 218.961 132.398C219.333 132.709 219.395 133.33 219.705 133.703C220.015 134.076 220.573 134.076 220.821 134.449L221.565 136.19ZM207.054 124.69L206.558 125.25C206.062 125.809 206.062 125.809 205.38 125.809C205.194 125.809 205.008 125.809 204.822 125.809C204.698 125.747 204.574 125.623 204.45 125.561C204.574 124.504 205.008 123.447 205.132 122.39C205.132 122.142 204.946 122.08 204.822 121.893C204.946 121.769 204.76 121.458 205.07 121.396L205.132 120.961L204.822 120.712C204.512 120.65 203.954 120.401 203.954 119.842V119.407L204.078 119.096L204.264 118.785L204.76 118.102L205.132 117.853L205.69 117.604L206 117.542C206.434 117.48 206.744 116.983 207.241 117.231C207.365 117.231 207.489 117.231 207.613 117.231L207.799 117.418L207.861 118.039L207.737 118.412C207.613 118.972 207.116 119.345 207.054 119.904C207.241 120.712 207.241 120.712 207.551 121.023C207.613 121.085 207.737 121.209 207.861 121.707L207.675 122.39L207.551 122.826V123.447L207.427 123.82L207.054 124.69ZM210.341 93.8597C209.721 94.4812 208.667 95.0407 208.667 95.0407C207.799 95.4136 206.868 95.5379 206 96.0352C203.954 97.2162 203.954 97.2162 203.334 97.4649C202.838 97.6513 202.28 97.4649 201.784 97.5892C201.598 97.6513 201.349 97.7135 201.225 97.8378C200.605 98.2729 199.489 98.7702 199.365 98.6459V98.5837C199.675 98.2729 199.675 98.2729 200.357 97.4649C200.295 97.527 200.295 97.5892 200.233 97.5892C200.233 97.5892 201.908 96.6568 202.28 96.5946C203.086 96.1595 203.396 95.973 203.83 95.5379C203.892 95.4758 204.016 95.3515 204.202 95.4758C204.264 95.4758 204.264 95.4758 204.326 95.4758L205.008 95.3515L205.256 95.4136C205.38 95.4136 205.504 95.3515 205.628 95.3515C206.186 95.3515 207.675 94.3569 207.675 94.3569C207.799 94.2948 208.047 94.0461 208.171 94.1083C208.295 94.0461 208.419 94.0461 208.543 93.984C209.225 93.984 209.783 93.4246 210.465 93.4246C210.527 93.611 210.527 93.6732 210.341 93.8597ZM211.705 86.5249C211.023 86.9601 210.775 87.0222 210.279 87.2087C210.217 87.2087 210.217 87.2087 210.155 87.2087L209.845 87.2708L209.473 87.4573L208.977 87.706L209.101 87.4573L209.225 87.2708C209.101 87.0844 209.039 87.0222 208.791 87.1465C208.667 87.2087 208.605 87.2087 208.543 87.2087C208.605 87.1465 208.667 87.0844 208.729 87.0222C208.729 87.0222 208.729 87.0222 208.729 86.9601C208.109 87.0222 208.109 87.0222 208.047 86.8979C207.985 86.8979 207.923 86.8979 207.861 86.8979C207.861 86.8357 207.799 86.8357 207.799 86.7736C207.737 86.7736 207.675 86.7736 207.675 86.6493L208.233 86.0898C208.419 85.9655 208.543 85.8412 208.729 85.7169C208.853 85.6547 208.977 85.7169 209.039 85.5926C209.039 85.5926 209.039 85.5926 209.101 85.5926C209.287 85.5926 209.535 85.5926 209.721 85.5304C209.721 85.5926 209.721 85.5926 209.969 85.5926C210.217 85.5304 210.465 85.3439 210.713 85.2818C211.209 85.1575 211.209 85.1575 211.333 85.1575C211.457 85.1575 211.519 85.0953 211.643 85.0953C211.643 85.1575 211.705 85.1575 211.829 85.0953C211.829 85.1575 211.829 85.1575 211.829 85.2196C211.891 85.2196 211.891 85.2196 211.953 85.2196C211.953 85.2818 211.953 85.2818 211.829 85.4061C211.829 85.4061 211.829 85.3439 211.891 85.3439C211.333 85.8412 211.333 85.8412 211.395 85.9655C211.395 86.0277 211.395 86.0277 211.271 86.0898C211.395 86.0277 211.767 85.8412 212.077 85.7169C212.325 85.5926 212.573 85.5304 212.821 85.4061L213.132 85.2818C213.194 85.2818 213.256 85.3439 213.318 85.3439C213.318 85.4061 213.318 85.4061 212.883 85.779C212.511 85.9655 212.077 86.2763 211.705 86.5249ZM311.481 277.165L312.597 273.747L312.969 270.266L313.403 268.525L313.651 267.469L312.845 265.666L311.233 265.107L308.814 263.739L308.008 262.931L306.334 262.372L305.156 262.061L301.311 260.88L300.319 260.569L297.838 259.699L295.854 258.829L294.552 258.518L293.064 257.958C291.885 256.715 291.885 256.715 288.785 252.115L288.103 250.437L287.359 249.008L284.506 246.397L282.646 245.216L280.475 243.973L277.127 243.04C275.142 242.73 275.142 242.73 271.546 240.554L270.43 238.192L268.135 236.389L266.709 235.146L263.236 233.592L260.632 233.219L254.865 233.033L252.26 232.971L250.524 232.908L246.121 230.982L243.269 231.168L242.091 230.857C241.532 230.671 241.533 230.671 235.393 232.1C234.277 234.089 234.091 234.338 231.239 234.649L227.084 235.084L225.1 234.96L223.983 234.898L221.503 234.214L219.829 233.592L218.464 230.857L218.34 229.365L218.154 227.563L217.72 225.139L217.224 221.409L216.046 220.166L214.434 219.793L213.318 219.42L210.837 217.804L209.535 217.742L207.985 217.68L206.744 217.617L205.628 216.312L206.868 215.442L208.109 214.82L208.605 213.577L208.543 212.334L208.171 209.475L208.109 207.61L208.853 205.683L209.101 203.818C208.791 203.507 208.419 203.134 208.109 202.824C207.303 202.824 206.248 202.886 205.442 202.886C205.38 203.259 205.256 203.756 205.194 204.129C204.76 204.129 204.14 204.191 203.706 204.191C203.272 204.191 202.714 204.191 202.28 204.253C201.846 206.056 200.605 207.486 200.295 209.35C199.737 209.661 198.993 210.096 198.435 210.407L197.505 210.718C194.962 211.153 194.962 211.153 193.474 209.599L192.482 207.983L191.552 206.678L190.87 205.372L190.374 203.445C190.126 201.518 190.064 201.394 190.188 195.675L189.567 193.686L189.505 190.143L189.815 188.9L190.622 186.662L192.172 183.865L194.28 183.617C198.249 182.56 202.28 184.549 206.248 183.43C209.287 182.746 209.907 182.871 214.62 183.741L216.17 184.425C216.48 184.673 216.976 184.984 217.286 185.233C218.34 194.681 218.34 194.681 221.999 196.608L223.177 195.986L224.107 194.37L224.48 191.449L224.852 190.205L223.921 185.668L223.177 184.052L223.053 182.125L222.929 180.198L222.991 176.406L225.1 174.604L226.216 174.666L229.75 173.858L230.991 172.988L231.673 171.744L234.835 168.761L235.579 166.958L235.703 165.777L235.827 164.534L235.269 162.11L236.944 160.059L238.37 160.121C238.494 159.686 238.618 159.126 238.742 158.691C239.424 158.069 239.424 158.069 239.424 158.069C241.16 156.578 243.331 155.894 245.191 154.713L246.431 153.843L248.602 151.854L249.036 150.673L249.284 148.373L250.09 146.135L250.772 145.016C251.206 144.83 251.764 144.643 252.136 144.519L257.407 144.146L259.702 143.089C259.702 143.959 259.826 145.078 260.074 145.886C260.446 146.073 260.88 146.322 261.252 146.508C261.624 146.259 262.12 145.949 262.554 145.7L263.484 144.332C264.477 144.27 265.779 144.395 266.771 144.457C266.771 144.457 266.771 144.457 266.833 144.457H266.895C266.957 144.457 266.957 144.457 267.019 144.457C267.081 144.457 267.143 144.457 267.143 144.457C267.205 144.457 267.267 144.457 267.329 144.457C267.391 144.457 267.515 144.457 267.577 144.457C267.701 144.457 267.763 144.457 267.887 144.457C270.926 143.027 270.926 143.027 272.228 140.106C271.298 139.546 269.809 139.422 268.755 139.422L265.779 139.049L264.228 138.49L262.864 138.427L261.872 137.557L262.058 135.941L262.182 134.574L261.996 133.517L260.446 131.031L257.655 132.274L256.291 132.771L254.245 134.076L253.191 134.014L253.935 132.46L256.043 130.658L257.717 129.663C259.95 129.166 262.244 129.912 264.477 129.663C265.717 131.963 265.717 131.963 267.577 132.895L268.507 131.59L269.871 130.844L271.422 130.347C272.228 130.533 273.282 130.782 274.088 130.906C274.46 130.471 275.018 129.849 275.39 129.352C276.197 128.171 276.259 126.679 277.127 125.561C277.561 125.498 277.561 125.498 277.561 125.498C278.677 125.125 279.793 123.758 280.351 122.763L280.165 120.526L279.731 119.283L277.561 118.723L276.693 117.231L276.507 116.237L275.08 115.739L273.902 115.491L272.848 113.564L271.918 110.953L271.422 108.84L269.561 107.162L269.003 105.981L268.011 105.048L266.957 103.494L264.725 105.173L263.236 106.229L260.446 106.851L259.454 106.354C259.578 103.743 259.578 103.743 259.95 102.189L260.012 101.132L259.826 100.262C259.082 100.013 258.089 99.7026 257.345 99.5782H256.353L255.857 98.5216L254.865 97.9L253.811 97.4649L252.198 97.4027H251.206L249.222 97.3405L247.796 97.9L245.377 101.443C244.323 104.24 244.323 104.24 243.641 107.348C243.021 111.761 242.711 112.134 239.796 115.677H238.866C236.758 117.853 236.758 117.853 236.696 120.526C236.386 121.334 236.076 122.515 235.89 123.385C236.138 123.696 236.51 124.131 236.758 124.442C236.014 124.877 234.897 125.25 234.029 125.374C233.719 125.063 233.285 124.566 232.913 124.255L232.231 122.453L232.417 120.464L232.851 117.729L233.471 115.304L231.735 114.496L229.998 113.937L229.44 113.191L229.378 112.259L227.332 111.202L225.72 110.642L225.286 109.461L224.231 109.213C223.239 109.026 221.875 108.529 220.945 108.156L220.759 106.789L221.131 105.421L220.263 104.489L219.643 103.805L218.899 103.121C219.953 101.443 219.953 101.443 223.487 99.1431L224.169 98.3351L225.348 97.3405C225.968 96.8433 226.836 96.1595 227.518 95.6623C228.448 94.9785 228.448 94.9785 228.448 94.9785C228.696 94.792 228.696 94.792 232.975 92.9273C233.347 92.6786 233.781 92.43 234.091 92.1814C237.626 90.3788 237.998 89.9437 239.3 88.3897L240.54 87.333L242.463 86.8357L244.323 86.8979L246.245 86.4006L247.113 85.5304L247.92 84.5359L249.036 83.5413L249.842 82.5468L250.772 81.3036L250.648 80.3712L250.462 79.874C252.88 79.4389 254.865 79.9361 255.547 80.1848L256.849 80.682L257.407 80.9928L257.841 81.3036L259.392 82.4846L259.764 82.9819L259.702 83.79L259.578 84.4737C256.105 89.0734 256.105 89.0734 256.167 91.0004C257.469 93.4245 257.469 93.4245 258.71 94.6056C262.244 97.527 262.368 97.6513 264.725 97.7135C264.911 97.4027 265.097 96.9676 265.283 96.6568L266.275 96.719L267.887 96.4082L268.259 95.8487L268.507 95.0407L268.259 94.2326L268.011 93.5489L267.639 92.2435L267.267 91.0625L266.089 90.2545L265.903 89.1356L266.213 88.2654C270.616 90.2545 270.616 90.2545 270.864 90.1923C271.546 89.3842 271.546 89.3842 271.546 89.3842C272.972 89.4464 273.592 89.4464 274.522 87.3952L274.708 86.7114C274.708 86.5871 274.77 86.4006 274.77 86.2763C274.026 85.779 272.972 85.2196 272.166 84.8467L271.236 83.9143L270.802 84.0386L269.933 83.9143L269.375 83.2305L269.065 82.7954L268.383 82.6711L267.701 82.1117L268.259 80.2469L268.383 79.8118L268.259 79.0038L267.825 78.5686L267.081 78.4443L266.337 77.5741L265.903 77.2633L264.663 76.766L264.104 76.4553L263.298 76.3309L262.678 75.2121L262.306 74.404L262.368 73.6581L261.624 73.7203L261.376 73.5338L259.95 73.8446L258.523 74.4662L258.461 73.8446V73.223L257.965 72.6014L257.779 72.3528L256.787 72.2906C256.663 72.2906 256.601 72.2906 256.477 72.2906L255.919 72.6014C254.369 73.1608 253.315 74.5905 251.578 74.777L252.198 74.0932C252.818 73.7203 253.625 73.1608 254.183 72.7257L254.555 72.4149L253.563 72.042L253.377 72.1041C249.284 73.2852 247.548 75.6472 246.865 76.9525C247.113 77.6984 247.486 78.693 247.858 79.4389C247.672 79.8118 247.362 80.3712 247.175 80.7442C246.431 81.2415 246.431 81.3036 246.369 81.3036L246.307 81.3658C246.307 81.3658 246.307 81.4279 246.245 81.4279C246.245 81.4279 246.245 81.4279 246.245 81.4901L244.881 82.1738L243.703 82.7954L241.781 83.8521C242.091 83.1684 242.649 82.3603 243.145 81.8009L243.703 81.055L244.013 80.5577L243.703 80.3091H243.207H242.525V78.9416L241.843 78.693L241.657 78.5686L242.959 77.3255L243.703 76.5796L244.323 75.8337L244.571 75.4607L244.509 75.2742L243.951 74.777C240.664 76.3931 239.114 79.8118 236.262 81.9874C235.89 82.2982 235.89 82.2982 235.89 82.2982C235.517 82.3603 234.959 82.3603 234.587 82.4225C234.587 82.1738 234.649 81.8009 234.649 81.4901L235.641 80.682L236.386 80.1848L236.758 79.3767L236.448 79.0659L235.207 78.8794L234.339 79.5632L234.215 80.1848C233.533 80.9928 232.107 81.5523 231.115 81.8009L229.502 81.9252L227.828 81.9874C227.022 82.0495 225.906 82.1117 225.1 82.0495L224.666 81.6144L223.735 82.236C223.363 82.4225 222.929 82.6711 222.557 82.8576C222.495 82.8576 222.495 82.8576 222.495 82.8576L222.371 82.6089H222.061L220.511 82.1738L219.705 82.0495L219.891 81.7387L220.139 81.4279L220.883 80.682L221.689 80.0605L221.627 79.9361L221.317 79.8118L220.697 79.2524L221.441 78.5686L221.627 78.2579H221.379H221.069H220.759L219.519 78.3822L220.511 77.4498L220.697 77.139H220.511L219.581 77.3876L219.333 77.4498L217.782 77.9471L217.844 77.8227H217.72L217.1 78.0714C216.728 78.2579 216.232 78.5065 215.86 78.6308C215.922 78.5686 215.922 78.4443 215.984 78.3822L215.612 78.4443L214.93 78.693L214.248 78.9416L214.31 78.8173L214.93 78.3822L215.364 78.0714L215.674 77.8849L216.294 77.4498L216.728 77.139H216.666L216.79 77.0147L216.976 76.8904L217.348 76.7039L217.658 76.5174C212.449 79.4389 205.69 83.5413 200.729 86.7736C196.637 89.9437 191.242 94.2326 187.397 97.6513L186.901 98.1486C186.591 98.4594 185.971 98.8945 185.971 99.3296L185.413 100.013C184.172 102.127 182.56 104.054 181.32 106.105L180.39 107.472L179.15 109.089L178.343 110.518L177.475 112.196C173.507 121.334 173.507 121.334 173.445 123.012C173.755 126.928 173.755 126.928 171.522 129.601L171.026 129.539L171.46 128.233L171.832 126.928L171.77 126.369L171.894 125.561C171.894 125.188 171.894 124.628 171.894 124.255C171.584 124.566 171.584 124.566 167.057 136.5L164.143 142.592L163.337 145.141C162.531 147.316 158.562 163.229 161.539 168.512C162.035 169.88 162.469 171.807 162.841 173.298V176.158C163.027 180.571 163.833 184.922 164.205 189.335C165.507 191.697 166.685 194.059 168.112 196.359L169.104 196.421L168.98 193.811L168.36 192.443L167.492 190.143L166.933 188.216L166.561 186.911L166.313 185.606L166.189 183.679L165.817 182.374L165.693 180.447L165.135 178.52L165.321 176.966L166.189 176.406C167.926 181.317 168.67 186.538 170.778 191.386C174.251 203.943 175.677 209.102 185.413 217.866L186.467 217.928L187.769 217.99C191.986 218.177 191.986 218.177 193.536 217.928C198.559 217.12 199.613 223.212 203.768 223.895L205.256 224.268L207.179 226.195L208.791 227.438L209.907 228.682L211.395 230.857C214.248 233.654 214.248 233.654 215.674 234.587C216.914 238.876 218.899 239.497 222.805 239.249L223.859 239L224.976 239.062L226.588 239.124L228.262 239.186L230.495 239.249L230.557 242.419L230.929 245.837C230.06 251.867 230.06 251.867 228.076 253.11C227.58 253.856 227.642 253.98 227.642 254.042C227.642 254.105 227.642 254.167 227.704 254.229C227.704 254.291 227.704 254.353 227.704 254.353C227.704 254.415 227.704 254.415 227.704 254.477V254.54C226.34 256.094 226.34 256.094 225.658 260.88L226.898 263.304C227.828 274.12 245.935 287.359 246.121 287.422L247.92 288.54L249.222 289.411L251.206 290.529C251.454 290.84 251.764 291.275 252.012 291.648C252.446 292.27 252.446 292.27 252.446 292.332V292.394V292.456C252.446 292.456 252.446 292.456 252.446 292.519C252.446 292.519 252.446 292.519 252.446 292.581C252.446 292.581 252.446 292.581 252.446 292.643V292.705V292.767V292.829V292.891C252.446 292.954 252.446 292.954 252.446 293.016C256.787 307.872 256.787 307.872 256.663 309.426L256.601 310.047L256.973 311.601L257.903 312.658C258.399 313.715 258.399 313.715 258.275 316.014C259.02 318.501 261.872 319.744 262.058 322.541L261.934 322.852L262.182 323.349L262.926 323.722L264.29 324.965L264.849 325.4L265.221 325.711C267.763 328.881 274.274 329.752 274.336 329.752L275.762 329.814H275.949H275.638H275.39H275.204L274.832 329.752L273.84 329.565L273.22 329.379L272.476 329.068L272.104 328.819L271.67 328.446L271.608 328.26L271.732 328.073L271.67 327.825L271.422 327.576L271.174 327.327L270.802 327.079L270.368 326.644L270.057 326.333L269.933 326.022L270.119 325.463L270.182 325.152L269.995 324.468L269.871 324.033V323.66L269.809 323.101L269.747 322.728L270.057 322.541L270.368 322.355L270.864 320.925H271.608C272.538 320.739 273.654 320.241 274.522 319.806L274.956 318.874V317.755L275.452 317.009L275.7 316.512L276.507 316.387L277.003 316.512L277.995 316.014L278.615 315.517L279.545 314.585L280.723 313.466L280.847 312.907C281.902 311.228 283.7 310.296 285.126 308.991L285.436 308.182L285.622 307.188L286.8 305.696L287.11 305.012C289.281 302.775 289.281 302.775 295.048 300.475C298.831 298.859 298.831 298.859 300.009 297.678L301.063 296.31L302.737 294.756L303.915 291.648L304.598 290.157L306.024 288.23L306.52 286.676L306.644 285.557L306.892 284.624C310.178 282.325 310.675 280.398 311.481 277.165Z" fill="#468E53"/>
<path d="M402.76 168.699C402.45 169.196 401.892 169.009 401.334 168.823L400.962 168.388L400.59 167.145V166.212L400.962 166.088H401.21H401.83L402.078 165.901L402.45 166.088L402.698 166.399L402.76 168.699Z" fill="#468E53"/>
<path d="M396.436 159.872C396.436 159.872 396.622 161.612 395.753 161.861C395.691 161.861 395.691 161.923 395.691 162.109C395.629 162.047 395.195 161.301 394.885 160.245C394.637 159.437 394.637 158.628 394.451 157.82C394.699 157.572 395.009 157.261 395.195 156.95L395.629 157.385L396.001 158.566C396.187 159.064 396.374 159.437 396.436 159.872Z" fill="#468E53"/>
<path d="M360.78 125.312C360.78 125.312 360.78 125.312 360.717 125.374C360.717 125.374 360.717 125.374 360.78 125.312Z" fill="#068743"/>
<path d="M363.942 120.525C364.252 121.209 364.934 122.825 364.624 123.136C364.562 123.074 364.5 123.074 364.314 122.763C364.5 123.758 365.492 124.441 365.554 125.498C365.554 125.622 365.554 125.622 364.624 126.866L364.314 126.99L364.128 127.736L363.756 128.109H363.074H362.578C361.895 127.984 361.895 127.984 361.833 127.86C361.833 127.86 360.593 125.809 360.593 125.436C360.779 125.249 361.027 125.063 361.213 124.939C361.151 124.504 361.027 123.944 360.903 123.509L360.593 122.887L359.911 122.39C358.857 121.769 358.857 121.458 358.795 121.271C359.043 121.023 359.601 120.463 359.911 120.961H359.973C360.283 120.152 359.663 119.158 359.663 119.158C359.601 119.096 359.477 118.909 359.477 118.847L360.221 118.35C360.345 118.35 360.345 118.35 360.965 118.474C361.151 118.288 361.275 118.288 361.709 118.412C362.019 118.536 362.02 118.536 362.082 118.536C362.206 118.474 362.144 118.35 362.144 118.288C362.392 118.226 363.57 119.593 363.942 120.525Z" fill="#468E53"/>
<path d="M375.909 127.736C375.227 126.12 374.111 124.007 372.561 123.261C372.313 123.136 371.631 122.826 371.445 122.639C370.142 121.396 369.398 119.656 367.786 118.661C367.228 118.288 366.856 117.729 366.36 117.231C365.864 116.734 365.182 116.548 364.685 116.05C364.437 115.802 364.189 115.491 364.003 115.18C364.189 115.118 364.375 114.994 364.561 114.932C364.437 113.315 364.375 112.942 362.701 112.259C362.329 112.072 362.329 112.072 361.957 111.513C361.957 111.451 361.895 111.451 361.895 111.388L361.833 111.326C361.833 111.326 361.833 111.264 361.771 111.264C361.771 111.264 361.771 111.264 361.771 111.202C361.771 111.202 361.771 111.202 361.771 111.14C361.771 111.14 361.771 111.14 361.771 111.078C361.771 111.078 361.771 111.016 361.709 111.016L361.647 110.953C361.213 110.332 360.841 110.021 360.841 110.021C360.779 110.021 360.779 110.021 360.717 109.959C360.531 109.897 360.407 110.145 360.221 110.083C359.787 109.897 359.601 109.462 359.104 109.399C358.484 109.586 358.484 109.648 358.298 109.772C358.298 110.083 358.36 110.332 358.298 110.643C358.174 110.518 358.174 110.518 357.244 110.518C357.306 110.643 357.368 110.829 357.368 110.953C357.492 111.078 357.554 111.264 357.678 111.388L359.042 112.445L359.787 113.005L360.159 113.502L360.903 114.807C363.073 117.791 363.259 118.039 363.693 118.102C363.941 118.164 364.189 118.537 364.375 118.723L365.244 119.345L365.926 119.966L366.67 120.837L367.042 121.583L367.786 123.199L367.166 123.82C367.91 125.312 367.91 125.312 368.096 126.866L368.53 127.674L369.212 128.482L369.646 128.793L369.956 129.477L369.894 130.223L369.522 130.596C369.46 130.596 369.274 130.595 369.212 130.658C369.336 131.528 369.646 131.839 370.39 132.46C370.576 132.025 370.638 131.963 371.445 132.087C371.569 131.839 371.693 131.528 371.817 131.341L372.189 130.844L372.375 130.596C373.429 130.409 374.607 131.031 375.599 130.16C376.654 129.477 376.219 128.42 375.909 127.736Z" fill="#468E53"/>
<path d="M410.387 175.163L410.263 174.542C410.201 174.169 410.139 173.796 410.077 173.423C410.077 173.485 410.077 173.547 410.077 173.609C410.015 173.423 410.015 173.236 409.953 173.05L410.387 175.163Z" fill="#068743"/>
<path d="M303.853 64.7072C305.342 65.018 305.404 65.018 305.466 65.0801L303.977 64.7693C303.977 64.7693 303.915 64.7693 303.853 64.7693C303.915 64.7693 304.101 64.8315 307.388 65.5152H307.326C308.938 65.7639 310.489 66.3233 312.101 66.6341C312.101 66.6341 314.023 67.1314 314.891 67.4422C314.829 67.4422 314.767 67.4422 314.705 67.38L315.387 67.6286L315.201 67.5665C314.395 67.38 314.395 67.38 312.535 66.8206L311.977 66.6341C311.791 66.5719 311.605 66.5719 311.419 66.5098C311.481 66.5098 311.543 66.5719 311.543 66.5719C311.605 66.6341 311.605 66.6341 311.605 66.6341L312.163 66.8206C312.473 66.8827 312.473 66.8827 317 68.3745L317.62 68.6232V68.6853H317.434L317 68.561L316.442 68.3745L315.449 68.0637L314.023 67.6286L313.279 67.4422L312.039 67.0692C311.791 67.0071 311.605 66.9449 311.357 66.8827L309.93 66.5098L309.062 66.2611C308.814 66.199 308.566 66.1368 308.318 66.0747C308.876 66.3233 309.434 66.3855 309.993 66.6341C307.76 66.5719 305.714 65.5774 303.543 65.0801C302.675 64.8937 302.675 64.8937 302.303 64.7693L302.365 64.7072C302.117 64.645 301.807 64.5829 301.559 64.5207C301.621 64.5207 301.683 64.5207 301.745 64.5207C300.815 64.3342 299.885 64.1478 298.893 64.0234C299.699 64.1478 300.443 64.2721 301.249 64.3964C301.187 64.3964 301.125 64.3342 301.063 64.3342C301.373 64.2721 301.683 64.3342 303.853 64.7072Z" fill="#068743"/>
<path d="M392.714 265.479L392.404 266.039L392.528 265.79C393.211 264.671 393.831 263.552 394.513 262.434L394.637 262.247L392.714 265.479ZM405.675 155.334C405.675 155.397 405.675 155.459 405.737 155.459C405.737 155.707 405.861 156.018 405.861 156.267C405.861 156.205 405.799 156.08 405.799 156.018C405.675 156.018 405.489 155.956 404.435 152.289C403.938 150.672 403.318 148.808 403.132 148.435L402.512 146.756L401.954 145.327L401.334 143.649C402.698 147.192 404.559 151.791 405.675 155.334ZM412 198.037C411.876 194.121 411.876 188.838 411.566 184.922C411.566 185.17 411.566 185.419 411.566 185.668C411.256 185.481 410.884 185.17 410.76 184.798L410.45 184.362L410.078 183.306L409.829 183.057C409.643 182.871 409.457 182.622 409.271 182.436C409.023 182.498 408.775 182.622 408.527 182.746C408.403 182.808 408.403 182.808 408.403 182.808C408.403 184.922 408.403 184.922 408.279 185.73C408.093 185.792 407.783 185.854 407.535 185.916C407.287 185.668 407.287 185.668 405.613 183.492C404.993 182.808 404.497 182 403.876 181.317C403.008 180.633 402.946 180.509 402.202 178.955H401.892L401.458 178.333L401.024 177.276C400.342 175.163 400.342 175.163 400.032 171.496C399.908 170.936 399.722 170.19 399.598 169.631C399.164 169.507 398.668 169.32 398.233 169.196H397.613H396.993L395.815 168.947H395.195L394.699 168.761H394.079L392.839 168.698H392.342H391.474H390.544L390.048 169.258L389.8 170.252L389.18 170.439L388.436 171.06L387.692 171.247L387.258 171.433L386.823 172.242L385.397 172.801L384.839 172.987L383.723 174.604L382.049 173.547L380.932 173.485L380.56 174.293L379.63 174.914C379.444 175.101 379.196 175.349 379.01 175.598C378.7 175.722 378.7 175.722 378.7 175.722C378.452 176.095 378.142 176.717 378.08 177.152C377.646 177.276 377.026 177.525 376.654 177.774C376.53 178.209 376.406 178.768 376.344 179.203L376.034 180.446L375.6 181.503L375.351 183.617L375.165 185.481L374.731 187.781L374.049 188.838L373.119 189.895L372.561 190.516L371.135 192.194L370.577 192.63C368.84 196.173 366.67 199.405 364.81 202.824L364.065 205.807L363.321 207.734L363.135 210.096L363.073 211.153L362.825 213.701V216.871L362.577 218.923C362.453 220.041 362.453 220.041 360.965 226.319L360.283 228.557L360.469 230.795V232.598L361.771 234.027L362.267 235.022L362.763 237.446L363.693 239.062L364.003 240.057L364.872 241.424L365.616 242.605L365.988 244.159L367.228 245.713V247.453L368.096 249.567L368.53 250.872C370.639 250.934 370.639 250.934 372.437 249.815L373.491 249.442H373.987H374.669H375.351L375.91 249.815L377.15 249.878L377.894 249.691C380.25 249.318 381.553 247.205 383.537 246.21H384.529L385.273 246.645L385.831 247.018L386.327 247.205L386.823 247.578L386.947 248.697V250.002L387.32 250.561L387.63 250.934L388.498 251.369C388.622 251.369 388.746 251.369 388.932 251.369L389.428 251.929L389.056 253.048C388.498 254.415 386.637 258.393 385.397 260.631L384.219 262.744L383.475 264.112L382.979 265.355L382.669 266.598L382.607 267.282L382.917 267.468L382.483 269.209L382.049 270.39L381.801 271.26C380.436 274.368 377.832 276.73 376.778 280.025L375.972 281.143L375.103 282.076L374.359 282.822C371.631 285.867 368.468 288.478 365.802 291.648C364.438 293.14 363.073 294.57 361.771 296.061L359.787 297.926L358.857 298.859L357.802 300.164L357.12 301.034C355.57 302.588 355.57 302.588 353.772 303.956L352.097 305.261L350.609 306.442L349.183 307.685L347.881 308.68L347.199 309.239L346.454 309.798L344.532 311.166L343.106 312.098L341.99 312.782L340.315 313.839L339.385 314.398L337.711 315.331L336.471 315.952L335.416 316.512L333.742 317.382H333.866H333.928H334.052H334.176L334.486 317.32C334.796 317.195 335.168 317.071 335.54 317.009H335.727L336.285 316.822L337.339 316.387L338.517 315.828C339.137 315.517 339.137 315.517 341.618 314.274C348.625 310.669 353.524 307.126 358.733 303.396C369.398 294.756 369.398 294.756 374.173 289.846C383.413 279.714 383.413 279.714 387.382 274.119C394.947 262.62 394.947 262.62 398.109 256.466C403.876 243.786 403.876 243.786 406.047 237.135C409.829 223.46 409.829 223.46 410.884 216.436C411.07 210.904 411.938 203.569 412 198.037ZM358.795 89.1976C355.88 87.1464 352.097 84.4114 349.059 82.4845L348.997 82.4223C347.695 81.6143 346.826 81.117 346.268 80.8062L345.958 80.6819L345.214 80.3711H345.152V80.4954C345.276 80.6819 345.462 80.9305 345.648 81.0548H345.586L345.71 81.2413L345.772 81.3656L346.454 81.8629C346.702 82.0494 347.013 82.298 347.199 82.4845C347.447 82.7953 347.819 83.1682 348.129 83.4169L348.625 83.852L349.183 84.4114L350.547 85.5303L351.105 85.9654L352.593 87.3329L353.152 87.8923C354.702 89.5084 356.252 91.0624 357.802 92.6785C359.849 95.7243 359.849 95.7243 360.097 97.7755L360.407 98.3349L360.841 99.143L360.965 99.5781L361.709 100.821L362.701 102.251C364.686 104.24 366.732 106.788 366.732 106.788L367.414 107.41L368.282 108.156L369.46 109.523L371.011 111.202H371.383L371.941 110.891L371.755 110.145V109.71L371.383 109.088L371.011 108.342L371.197 108.032L371.321 107.907L371.817 108.094L373.057 109.648L374.111 110.704L375.041 111.637L375.786 112.258L377.336 113.875L378.204 115.118L379.568 116.92L380.56 117.604L380.87 117.418L380.622 116.61L380.56 115.988C380.312 115.18 380.312 115.18 377.956 111.45L377.212 110.394C375.91 108.218 375.103 107.224 373.553 105.421C373.305 105.172 373.119 104.924 372.871 104.675L372.623 104.551L372.189 104.426L371.631 103.991L370.701 102.997C368.282 100.324 366.298 97.2782 363.693 94.7919C362.453 93.673 362.453 93.673 361.337 92.492L361.213 92.2434L360.841 91.8704V91.7461C361.461 91.9948 361.461 91.9947 362.763 93.0514L363.941 94.046L364.996 94.9784L365.678 95.6621L366.36 96.3459C366.546 96.5945 366.794 96.9053 366.98 97.0918C366.98 97.1539 366.98 97.1539 366.98 97.1539C367.29 97.589 367.29 97.589 367.91 98.3349C368.716 99.143 369.522 99.8889 370.267 100.697L371.693 102.127L373.119 103.681L374.731 105.297L375.227 105.732H375.413L376.096 106.353L376.468 106.54L376.53 106.416L376.406 106.105L376.096 105.67H376.158H376.344L376.592 105.856L377.15 106.416L378.328 107.783H378.266L378.452 108.094L378.39 108.218L378.452 108.529L378.514 108.84L378.948 109.461L379.692 110.394L380.498 111.45L381.491 112.88L381.553 113.191H381.429L381.367 113.502L381.987 114.434L382.483 115.242L383.165 116.237L384.219 117.853L384.839 118.972V119.78L384.591 120.588C384.529 120.588 384.467 120.588 384.405 120.588C384.157 120.65 383.847 120.898 383.661 121.085C383.413 121.085 383.103 121.023 382.855 121.023L381.925 120.526C380.312 120.339 380.312 120.339 380.188 120.339C379.382 119.345 379.382 119.345 379.32 118.226L378.452 117.231L377.646 116.547C377.46 116.299 377.274 115.988 377.088 115.739L375.537 113.999L374.607 112.88L374.173 112.694L374.607 113.626L374.483 114.061L374.855 114.869L375.786 116.299L376.778 117.728L377.956 119.345L378.7 120.65L379.692 122.452L379.32 122.763C379.32 122.763 379.32 122.763 379.258 122.763H379.196H379.134C377.894 123.198 377.894 123.198 377.398 123.571C377.832 124.69 378.08 125.871 378.514 126.99C378.576 128.482 377.832 129.911 378.142 131.465L378.08 132.149C376.84 133.703 376.84 133.703 376.716 134.263L376.096 134.449L375.848 135.133L375.165 136.003H374.297L372.623 136.127L372.251 137.184L372.747 137.93L373.429 138.489L374.049 139.049L374.545 139.235L375.537 139.608L376.282 139.795C379.692 143.276 379.692 143.276 380.684 149.927C380.498 150.051 380.126 150.175 379.878 150.175C379.506 150.735 379.506 150.735 377.646 150.672C376.964 150.672 376.964 150.672 373.429 149.616H372.809L372.189 149.989C372.065 150.113 371.879 150.237 371.817 150.362C371.817 150.735 371.817 151.294 371.755 151.729L372.127 153.843L372.003 155.024V156.205L372.685 158.38L373.181 160.183C373.429 162.172 373.429 162.172 374.421 166.585L376.53 167.828L378.39 168.263L379.754 168.077L381.305 167.704L382.421 167.953C383.165 167.642 383.165 167.642 383.847 167.082C384.095 166.958 384.095 166.958 384.095 166.958L384.529 166.772L385.397 165.404L385.769 165.031L386.079 164.223L386.575 162.856L386.327 161.675C386.203 160.866 386.203 160.742 386.141 159.872C386.265 159.81 386.451 159.748 386.637 159.685L386.823 158.691L386.637 157.51C386.823 156.95 387.444 156.391 387.878 156.018L388.064 154.464L388.312 153.905L388.25 152.91L388.312 152.164L388.188 151.418L388.25 150.486L388.932 150.921C389.056 150.921 389.18 150.921 389.304 150.921L389.8 151.916L390.358 152.537L390.916 152.91L391.226 152.724L391.536 152.537L391.784 151.418L391.846 150.3L391.97 149.74L392.094 148.994L392.59 149.181H392.963L393.397 149.554L393.831 149.927L394.575 150.735L395.567 152.102L396.063 153.283L396.869 154.464L397.551 155.645L398.357 157.013L398.73 157.386L399.412 158.194L400.404 159.437L400.9 159.81L401.21 160.804L401.582 161.799L401.954 162.793L402.326 164.161L402.76 164.782L403.008 164.969L403.194 164.41C402.822 162.856 402.698 162.42 402.264 160.742C402.202 160.556 402.202 160.556 402.202 160.494V160.431C401.892 159.437 401.892 159.437 401.954 158.069L401.396 156.702L401.148 156.515L400.776 156.08L400.466 155.894L400.094 155.521L399.226 154.153C398.419 153.097 397.675 151.916 396.869 150.797L395.939 149.616C394.761 147.44 394.699 147.254 394.389 145.638C395.629 146.384 395.629 146.384 396.621 147.565L397.117 148.31L398.047 149.305L398.792 150.3L399.412 151.294L400.342 152.475L401.21 154.216L401.768 155.583L402.45 156.95L402.946 158.131L403.442 159.499L403.938 161.053L404.311 162.047L404.869 163.291L405.241 164.285L405.737 165.28L406.109 166.274L406.357 167.517L406.791 169.32L407.039 169.755H407.287L407.411 168.947C407.349 168.201 407.287 167.455 407.225 166.709L406.977 165.466L406.667 164.037L406.357 163.042C406.047 161.923 405.737 160.804 405.489 159.685L405.365 158.877L405.861 159.312L406.233 160.307L406.543 161.302L407.225 163.726L407.597 165.155L408.031 166.585L408.341 167.393L408.527 168.201L408.713 168.636C409.085 169.569 409.085 169.569 409.271 169.693L409.333 169.569C408.341 165.404 406.977 159.872 405.799 155.832C401.086 142.716 401.086 142.716 397.985 136.5C391.35 124.442 391.35 124.442 387.382 118.785C379.01 107.907 379.01 107.907 374.235 102.997C364.996 93.9838 363.569 92.6785 358.795 89.1976Z" fill="#468E53"/>
<path d="M116.522 294.489V274.785H102.011L69.8274 256.138C69.0213 255.703 67.657 255.765 66.7269 256.262L34.6673 274.847H20.2188V294.614C20.2188 294.862 20.4048 295.173 20.7148 295.36L66.9129 322.088C67.719 322.523 69.0833 322.461 70.0134 321.964L115.777 295.484C116.274 295.173 116.522 294.8 116.522 294.489Z" fill="url(#paint5_linear_1457_1295)"/>
<path d="M66.9123 302.321L20.7142 275.593C19.9081 275.158 20.0321 274.35 20.9623 273.79L66.7263 247.311C67.6564 246.814 69.0207 246.751 69.8268 247.186L116.025 273.915C116.831 274.35 116.707 275.158 115.777 275.717L70.0129 302.197C69.0827 302.756 67.7184 302.818 66.9123 302.321Z" fill="url(#paint6_linear_1457_1295)"/>
<path d="M66.9123 302.321L20.7142 275.593C19.9081 275.158 20.0321 274.35 20.9623 273.79L66.7263 247.311C67.6564 246.814 69.0207 246.751 69.8268 247.186L116.025 273.915C116.831 274.35 116.707 275.158 115.777 275.717L70.0129 302.197C69.0827 302.756 67.7184 302.818 66.9123 302.321Z" fill="#C7E2D4"/>
<path d="M67.0992 299.213L26.1721 275.531C25.49 275.096 25.552 274.412 26.3581 273.977L66.9132 250.419C67.7193 249.922 68.9596 249.922 69.6417 250.295L110.569 273.977C111.251 274.412 111.189 275.096 110.383 275.531L69.8277 299.027C69.0216 299.586 67.7814 299.586 67.0992 299.213Z" fill="#313C46"/>
<path d="M67.2216 297.224L29.581 275.468C28.9609 275.096 29.0229 274.474 29.767 274.039L67.0356 252.47C67.7797 252.035 68.8959 251.973 69.516 252.345L107.157 274.101C107.777 274.474 107.715 275.096 106.971 275.531L69.702 297.1C68.9579 297.535 67.8417 297.597 67.2216 297.224Z" fill="url(#paint7_linear_1457_1295)"/>
<path d="M67.5317 273.355L63.1289 270.807L65.4853 269.439L69.8881 271.988L67.5317 273.355Z" fill="#F4F5FD"/>
<path d="M75.6557 272.983L71.2529 275.531L68.8965 274.164L73.2993 271.615L75.6557 272.983Z" fill="#F4F5FD"/>
<path d="M66.478 273.915L64.1215 275.344L61.7031 273.915L64.1215 272.547L66.478 273.915Z" fill="#F4F5FD"/>
<path d="M74.786 278.763L72.4296 280.13L65.4844 276.09L67.9028 274.723L74.786 278.763Z" fill="#F4F5FD"/>
<path d="M116.522 263.907V254.956H102.011L69.8274 236.309C69.0213 235.873 67.657 235.936 66.7269 236.433L34.6673 255.018H20.2188V263.969C20.2188 264.218 20.4048 264.529 20.7148 264.715L66.9129 291.443C67.719 291.878 69.0833 291.816 70.0134 291.319L115.777 264.839C116.274 264.591 116.522 264.218 116.522 263.907Z" fill="url(#paint8_linear_1457_1295)"/>
<path d="M66.9123 282.555L20.7142 255.826C19.9081 255.391 20.0321 254.583 20.9623 254.024L66.7263 227.544C67.6564 227.047 69.0207 226.985 69.8268 227.42L116.025 254.148C116.831 254.583 116.707 255.391 115.777 255.951L70.0129 282.43C69.0827 282.928 67.7184 282.99 66.9123 282.555Z" fill="#C7E2D4"/>
<path d="M67.285 275.966L32.1249 255.578C31.5047 255.205 31.6288 254.645 32.3109 254.21L67.099 234.071C67.7811 233.698 68.8353 233.636 69.4554 233.947L104.616 254.272C105.236 254.645 105.112 255.205 104.429 255.64L69.6414 275.779C68.9593 276.214 67.9051 276.277 67.285 275.966Z" fill="#91BAA3"/>
<path d="M67.3465 276.028L35.0388 257.318C34.4807 257.007 34.5427 256.448 35.1628 256.075L67.1604 237.551C67.7805 237.179 68.7727 237.116 69.3308 237.489L101.638 256.199C102.197 256.51 102.135 257.069 101.514 257.442L69.5168 275.903C68.8967 276.276 67.9046 276.338 67.3465 276.028Z" fill="#B6D3C3"/>
<circle cx="206" cy="163" r="5" fill="#F3F9F6" fill-opacity="0.22"/>
<circle cx="206" cy="163" r="2" fill="#F3F9F6"/>
<circle cx="394" cy="209" r="5" fill="#F3F9F6" fill-opacity="0.22"/>
<circle cx="394" cy="209" r="2" fill="#F3F9F6"/>
<circle cx="276" cy="277" r="5" fill="#F3F9F6" fill-opacity="0.22"/>
<circle cx="276" cy="277" r="2" fill="#F3F9F6"/>
<circle cx="252" cy="269" r="5" fill="#F3F9F6" fill-opacity="0.22"/>
<circle cx="252" cy="269" r="2" fill="#F3F9F6"/>
<circle cx="182" cy="170" r="5" fill="#F3F9F6" fill-opacity="0.22"/>
<circle cx="182" cy="170" r="2" fill="#F3F9F6"/>
<circle cx="192" cy="151" r="5" fill="#F3F9F6" fill-opacity="0.22"/>
<circle cx="192" cy="151" r="2" fill="#F3F9F6"/>
<circle cx="225" cy="91" r="5" fill="#F3F9F6" fill-opacity="0.22"/>
<circle cx="225" cy="91" r="2" fill="#F3F9F6"/>
<circle cx="189" cy="114" r="5" fill="#F3F9F6" fill-opacity="0.22"/>
<circle cx="189" cy="114" r="2" fill="#F3F9F6"/>
<circle cx="273" cy="291" r="5" fill="#F3F9F6" fill-opacity="0.22"/>
<circle cx="273" cy="291" r="2" fill="#F3F9F6"/>
<circle cx="286" cy="291" r="5" fill="#F3F9F6" fill-opacity="0.22"/>
<circle cx="286" cy="291" r="2" fill="#F3F9F6"/>
<circle cx="384" cy="229" r="5" fill="#F3F9F6" fill-opacity="0.22"/>
<circle cx="384" cy="229" r="2" fill="#F3F9F6"/>
<circle cx="394" cy="137" r="5" fill="#F3F9F6" fill-opacity="0.22"/>
<circle cx="394" cy="137" r="2" fill="#F3F9F6"/>
</g>
<defs>
<linearGradient id="paint0_linear_1457_1295" x1="63.5625" y1="175.446" x2="109.947" y2="175.446" gradientUnits="userSpaceOnUse">
<stop stop-color="#94C23B"/>
<stop offset="1" stop-color="#468E53"/>
</linearGradient>
<linearGradient id="paint1_linear_1457_1295" x1="132.221" y1="29.8031" x2="152.821" y2="29.8031" gradientUnits="userSpaceOnUse">
<stop stop-color="#3D4E59"/>
<stop offset="0.9963" stop-color="#5D6A72"/>
</linearGradient>
<radialGradient id="paint2_radial_1457_1295" cx="0" cy="0" r="1" gradientUnits="userSpaceOnUse" gradientTransform="translate(310.761 127.674) scale(150.95 151.31)">
<stop stop-color="#19CA6D"/>
<stop offset="0.3218" stop-color="#1AB05E"/>
<stop offset="0.7486" stop-color="#1B944D"/>
<stop offset="0.9944" stop-color="#1B8947"/>
</radialGradient>
<linearGradient id="paint3_linear_1457_1295" x1="319.545" y1="49.2614" x2="229.503" y2="369.466" gradientUnits="userSpaceOnUse">
<stop stop-color="#19CA6D"/>
<stop offset="0.0302649" stop-color="#1DAE64"/>
<stop offset="0.0722143" stop-color="#228F59"/>
<stop offset="0.1197" stop-color="#257351"/>
<stop offset="0.1735" stop-color="#295D49"/>
<stop offset="0.2362" stop-color="#2B4C44"/>
<stop offset="0.3137" stop-color="#2D4140"/>
<stop offset="0.7244" stop-color="#2D3848"/>
<stop offset="1" stop-color="#192231"/>
</linearGradient>
<linearGradient id="paint4_linear_1457_1295" x1="353.499" y1="66.3314" x2="294.801" y2="150.509" gradientUnits="userSpaceOnUse">
<stop stop-color="white"/>
<stop offset="1" stop-color="white" stop-opacity="0"/>
</linearGradient>
<linearGradient id="paint5_linear_1457_1295" x1="20.2187" y1="288.802" x2="116.522" y2="288.802" gradientUnits="userSpaceOnUse">
<stop stop-color="#94C23B"/>
<stop offset="1" stop-color="#468E53"/>
</linearGradient>
<linearGradient id="paint6_linear_1457_1295" x1="110.132" y1="275.697" x2="5.68376" y2="243.152" gradientUnits="userSpaceOnUse">
<stop stop-color="#C0D6FF"/>
<stop offset="0.2978" stop-color="#C5DBFF"/>
<stop offset="0.6488" stop-color="#D3E9FF"/>
<stop offset="1" stop-color="#E9FFFF"/>
</linearGradient>
<linearGradient id="paint7_linear_1457_1295" x1="29.1428" y1="274.768" x2="107.589" y2="274.768" gradientUnits="userSpaceOnUse">
<stop stop-color="#3D4E59"/>
<stop offset="0.9963" stop-color="#5D6A72"/>
</linearGradient>
<linearGradient id="paint8_linear_1457_1295" x1="20.2187" y1="263.616" x2="116.522" y2="263.616" gradientUnits="userSpaceOnUse">
<stop stop-color="#94C23B"/>
<stop offset="1" stop-color="#468E53"/>
</linearGradient>
<clipPath id="clip0_1457_1295">
<rect width="412" height="330" fill="white"/>
</clipPath>
</defs>
</svg>
