<svg width="446" height="358" viewBox="0 0 446 358" fill="none" xmlns="http://www.w3.org/2000/svg">
<g clip-path="url(#clip0_1457_758)">
<path d="M91.8992 219.891C91.4255 219.891 90.8926 219.712 90.4781 219.354C86.8661 216.371 78.3392 209.091 77.3326 205.689C76.622 203.303 77.0365 200.796 78.4577 198.887C79.8788 196.977 82.0697 196.023 84.6159 196.082H84.6751C89.1754 196.202 91.4255 200.08 92.0177 202.288C92.373 203.541 91.6032 204.854 90.3597 205.212C89.1162 205.57 87.8135 204.794 87.4582 203.541C87.399 203.422 86.6292 200.856 84.4975 200.796C83.4909 200.796 82.7211 201.095 82.2474 201.751C81.7736 202.407 81.596 203.362 81.8921 204.257C82.4842 205.809 88.3464 211.358 93.5572 215.655C94.5639 216.49 94.7415 217.982 93.9125 218.996C93.3204 219.653 92.6098 219.951 91.8992 219.891Z" fill="#313C46"/>
<path d="M87.457 191.189H114.281L112.682 224.486H89.5295L87.457 191.189Z" fill="#313C46"/>
<path d="M320.11 312.621H403.009C413.016 312.621 422.372 304.327 423.734 294.242L445.88 128.593C447.242 118.508 440.136 110.214 430.129 110.214H347.23C337.223 110.214 327.867 118.508 326.505 128.593L304.359 294.242C302.997 304.327 310.102 312.621 320.11 312.621Z" fill="#444C5E"/>
<path d="M309.273 308.563C312.056 311.07 315.846 312.621 320.11 312.621H403.009C413.016 312.621 422.372 304.386 423.675 294.242L445.88 128.593C447.124 119.463 441.439 111.885 432.972 110.453C434.393 128.951 433.327 148.404 429.478 168.096C414.852 242.387 365.053 297.763 309.273 308.563Z" fill="#2D3848"/>
<path d="M334.795 255.037H438.597C440.314 255.037 441.676 253.665 441.676 251.934V244.774C441.676 243.043 440.314 241.671 438.597 241.671H334.795V255.037Z" fill="#313C46"/>
<path d="M318.334 94.998L311.584 95.535C308.268 95.7737 305.366 93.4465 305.07 90.2242L303.649 73.7547C303.353 70.5921 305.84 67.7876 309.156 67.4892L315.906 66.9521L318.334 94.998Z" fill="url(#paint0_linear_1457_758)"/>
<path d="M315.846 95.2365L313.418 67.1907L315.905 67.0117L318.333 94.9979L315.846 95.2365Z" fill="#FFA300"/>
<path d="M358.718 98.4587C358.718 98.4587 377.903 84.8535 377.252 69.5178C376.601 54.2417 367.245 35.8628 349.362 35.8628C331.479 35.8628 320.762 46.9618 320.762 46.9618L358.718 98.4587Z" fill="#2D3848"/>
<path d="M306.55 151.507L291.51 200.617L271.377 209.508C271.377 209.508 265.634 206.823 255.863 205.331C243.547 203.481 230.164 215.117 231.941 219.294C233.717 223.471 267.588 222.576 267.588 222.576C267.588 222.576 293.346 221.383 301.754 218.638C310.103 215.953 324.078 161.83 324.078 161.83L306.55 151.507Z" fill="#F2B4AA"/>
<path d="M336.276 124.416C336.276 124.416 322.775 133.784 317.979 142.198C313.182 150.552 313.064 161.651 313.538 165.47C313.952 169.229 316.617 176.39 316.617 176.39C316.617 176.39 320.347 184.804 318.393 196.559C316.439 208.314 311.998 216.967 311.998 223.173C311.998 229.379 330.236 234.212 346.342 232.899C362.389 231.587 380.982 229.856 380.982 224.903C380.982 219.951 373.462 207.837 373.225 198.349C372.988 188.802 377.193 163.262 377.193 163.262L373.462 128.891L362.922 121.134L336.276 124.416Z" fill="url(#paint1_linear_1457_758)"/>
<path d="M333.374 121.074C333.374 121.074 325.439 122.387 319.518 126.624C313.597 130.86 302.701 155.147 302.701 155.147L314.722 163.262C314.722 163.262 312.768 152.402 318.038 145.301C323.308 138.2 332.663 129.846 332.663 129.846L333.374 121.074Z" fill="url(#paint2_linear_1457_758)"/>
<path d="M362.27 163.322L350.131 196.321L301.871 213.029C301.871 213.029 296.128 210.344 286.357 208.852C274.041 207.002 260.659 218.638 262.435 222.815C264.211 226.992 298.082 226.097 298.082 226.097C298.082 226.097 347.052 219.235 355.401 216.49C363.75 213.805 379.146 173.347 379.146 173.347L362.27 163.322Z" fill="#FFCDC4"/>
<path d="M368.902 119.642C368.902 119.642 376.955 119.582 385.364 126.206C393.713 132.889 391.107 147.748 388.028 154.849C384.949 161.95 380.034 174.839 380.034 174.839L358.658 164.873C358.658 164.873 370.679 145.778 370.797 141.482C370.916 137.126 363.632 124.356 363.632 124.356L368.902 119.642Z" fill="url(#paint3_linear_1457_758)"/>
<path d="M359.191 90.3433C359.191 90.3433 357.355 109.916 360.612 113.257C363.869 116.599 366.296 118.747 368.902 119.642C371.448 120.537 358.599 131.457 341.604 131.756C324.551 132.054 333.373 121.134 333.373 121.134C333.373 121.134 341.13 117.971 341.604 113.735C342.078 109.498 341.604 100.726 341.604 100.726L359.191 90.3433Z" fill="#F2B4AA"/>
<path d="M318.097 53.3467C318.097 53.3467 313.419 78.1702 316.913 89.4482C320.466 100.667 327.512 111.049 335.98 111.049C344.507 111.049 354.158 101.144 358.303 95.4751C362.389 89.8659 359.784 53.3467 359.784 53.3467H318.097Z" fill="#FFCDC4"/>
<path d="M357.475 79.3636C357.475 79.3636 362.508 69.7564 367.186 72.1433C371.804 74.5301 368.488 82.7052 365.528 86.1661C362.567 89.6271 357.771 89.1497 357.771 89.1497L357.475 79.3636Z" fill="#FFCDC4"/>
<path d="M327.69 56.3301C327.69 56.3301 337.875 69.9352 346.165 73.8139C354.455 77.6926 359.784 77.0362 359.784 77.0362L367.363 60.8651L358.6 42.8442C358.6 42.8442 337.815 33.7144 329.407 37.1754C320.939 40.6363 315.018 46.7229 312.057 54.7786C309.097 62.8343 315.669 77.991 315.669 77.991C317.387 78.0506 327.868 65.1018 327.69 56.3301Z" fill="#2D3848"/>
<path d="M369.199 51.7354C369.199 51.7354 375.535 39.6816 389.628 39.2639C403.78 38.8462 412.84 53.7642 410.886 67.4291C408.932 81.094 397.504 93.3864 395.253 103.292C393.003 113.197 398.51 117.554 398.51 117.554C398.51 117.554 380.45 114.689 380.983 99.7713C381.575 84.8533 382.286 73.9333 380.509 71.7255C378.673 69.5176 371.153 66.6534 371.153 66.6534L369.199 51.7354Z" fill="#2D3848"/>
<path d="M312.176 95.5944C313.182 98.041 315.136 100.965 319.104 102.576C320.584 103.173 322.005 103.65 323.426 103.949C328.933 105.202 333.315 104.486 333.493 104.486C334.026 104.366 334.381 103.889 334.263 103.352C334.144 102.815 333.67 102.457 333.138 102.576C333.078 102.576 326.683 103.65 319.814 100.786C316.735 99.5328 315.077 97.3846 314.189 95.4751L312.768 95.5944C312.59 95.5944 312.353 95.5944 312.176 95.5944Z" fill="url(#paint4_linear_1457_758)"/>
<path d="M343.5 36.2208L339.77 36.8772C339.77 36.8772 352.856 36.6982 358.718 48.6326C364.58 60.6266 364.699 68.921 364.699 68.921H367.955C367.955 68.921 370.087 59.0751 363.159 46.544C356.231 34.1323 343.5 36.2208 343.5 36.2208Z" fill="#FFA300"/>
<path d="M341.841 99.7116C341.841 100.845 338.17 103.292 333.67 103.292C329.169 103.292 325.498 100.845 325.498 99.7116C325.498 98.5778 329.169 99.1149 333.67 99.1149C338.17 99.1149 341.841 98.5778 341.841 99.7116Z" fill="white"/>
<path d="M326.209 103.412C326.209 104.963 328.459 106.276 331.301 106.335C334.144 106.395 336.453 105.142 336.453 103.531C336.453 101.979 334.203 100.667 331.361 100.607C328.518 100.607 326.209 101.86 326.209 103.412Z" fill="#313C46"/>
<path d="M361.621 96.3705L368.371 96.8479C371.687 97.0866 374.589 94.64 374.826 91.4774L376.129 75.008C376.365 71.8453 373.878 69.0408 370.562 68.8021L363.812 68.3247L361.621 96.3705Z" fill="url(#paint5_linear_1457_758)"/>
<path d="M361.62 96.3704L357.949 96.1317L360.14 68.0859L363.811 68.3246L361.62 96.3704Z" fill="#FFA300"/>
<path d="M415.327 224.426H0V239.046H415.327V224.426Z" fill="#2D3848"/>
<path d="M401 238H14V358H401V238Z" fill="url(#paint6_linear_1457_758)"/>
<path d="M323.724 82.6457C324.705 82.6457 325.5 81.2031 325.5 79.4235C325.5 77.6438 324.705 76.2012 323.724 76.2012C322.743 76.2012 321.947 77.6438 321.947 79.4235C321.947 81.2031 322.743 82.6457 323.724 82.6457Z" fill="#313C46"/>
<path d="M341.071 82.6457C342.052 82.6457 342.848 81.2031 342.848 79.4235C342.848 77.6438 342.052 76.2012 341.071 76.2012C340.09 76.2012 339.295 77.6438 339.295 79.4235C339.295 81.2031 340.09 82.6457 341.071 82.6457Z" fill="#313C46"/>
<path d="M264.864 220.428H196.472C195.761 220.428 195.229 220.965 195.229 221.681V224.724C195.229 225.44 195.761 225.977 196.472 225.977H264.864V220.428Z" fill="#313C46"/>
<path d="M282.449 224.307V225.56C282.449 225.798 282.212 226.037 281.976 226.037H264.744C264.211 226.037 263.797 225.619 263.797 225.082V221.442C263.797 220.846 264.33 220.428 264.863 220.488L282.035 223.829C282.272 223.829 282.449 224.068 282.449 224.307Z" fill="#525B69"/>
<path d="M145.312 103.292H273.155C275.76 103.292 278.07 104.903 278.899 107.35L306.848 185.58C308.032 189.637 305.071 192.621 300.394 193.158C299.683 193.218 296.249 191.666 290.86 189.1H176.577C173.972 189.1 171.662 187.489 170.833 185.043L145.549 114.331C141.285 112.064 138.858 110.811 138.858 110.811C138.858 110.811 137.259 103.292 145.312 103.292Z" fill="url(#paint7_linear_1457_758)"/>
<path d="M269.127 107.35H141.284C139.449 107.35 138.205 109.14 138.797 110.87L166.746 189.1C167.635 191.547 169.944 193.158 172.49 193.158H300.333C302.169 193.158 303.412 191.368 302.82 189.637L274.871 111.407C274.042 108.961 271.733 107.35 269.127 107.35Z" fill="url(#paint8_linear_1457_758)"/>
<path d="M240.291 193.218L234.606 171.975L213.111 193.218H240.291Z" fill="#5C6971"/>
<path d="M209.143 134.799C209.676 138.32 211.926 139.692 214.65 139.692C217.315 139.692 219.387 137.424 218.914 134.799C218.44 132.114 216.131 129.906 213.407 129.906C210.683 129.906 208.729 132.114 209.143 134.799Z" fill="white"/>
<path d="M197.121 218.459C198.365 214.819 213.701 165.052 213.701 165.052H233.301L234.604 171.974C234.604 171.974 221.458 214.819 220.155 218.459C220.037 218.757 219.978 218.996 219.859 219.294C218.734 222.874 221.754 222.874 225.189 222.874C228.623 222.874 259.829 222.874 259.829 222.874V226.037H225.189H202.095C195.226 226.037 195.878 222.099 197.121 218.459Z" fill="#313C46"/>
<path d="M233.301 165.052C233.301 165.052 218.024 214.819 216.721 218.459C215.477 222.099 214.826 226.037 221.754 226.037H198.661C191.733 226.037 192.325 222.158 193.627 218.459C194.871 214.819 210.207 165.052 210.207 165.052H233.301Z" fill="url(#paint9_linear_1457_758)"/>
<path d="M228.505 165.052C226.965 164.993 225.485 164.933 223.945 164.873C222.406 164.814 220.926 164.814 219.386 164.754C217.846 164.754 216.366 164.694 214.826 164.694H210.267H210.03L209.971 164.933C209.32 166.962 208.727 168.931 208.135 170.96L206.3 176.987C205.115 181.044 203.931 185.042 202.865 189.16C204.286 185.221 205.589 181.223 206.892 177.225L208.787 171.199C209.438 169.17 210.03 167.201 210.622 165.172L210.267 165.41H214.826C216.366 165.41 217.846 165.351 219.386 165.351C220.926 165.291 222.406 165.291 223.945 165.231C225.485 165.172 226.965 165.112 228.505 165.052Z" fill="white"/>
<path d="M200.81 26H270.722C274.512 26 277.591 29.1029 277.591 32.9219V69.3139C277.591 73.1329 274.512 76.2358 270.722 76.2358H264.978L271.788 88.1105C271.906 88.3492 271.669 88.5879 271.433 88.4686L249.997 76.2955H200.869C197.079 76.2955 194 73.1926 194 69.3736V32.9219C194 29.1029 197.02 26 200.81 26Z" fill="#424B5D"/>
<path d="M230.663 42H206.337C205.579 42 205 41.5667 205 41C205 40.4333 205.579 40 206.337 40H230.663C231.421 40 232 40.4333 232 41C232 41.5667 231.421 42 230.663 42Z" fill="#525B69"/>
<path d="M254.67 49H206.33C205.577 49 205 48.5667 205 48C205 47.4333 205.577 47 206.33 47H254.67C255.423 47 256 47.4333 256 48C256 48.5667 255.423 49 254.67 49Z" fill="#525B69"/>
<path d="M254.67 55H206.33C205.577 55 205 54.5667 205 54C205 53.4333 205.577 53 206.33 53H254.67C255.423 53 256 53.4333 256 54C256 54.5667 255.423 55 254.67 55Z" fill="#525B69"/>
<path d="M236.671 61H206.329C205.576 61 205 60.5667 205 60C205 59.4333 205.576 59 206.329 59H236.671C237.424 59 238 59.4333 238 60C238 60.5667 237.424 61 236.671 61Z" fill="#525B69"/>
<path d="M157.554 224.364H121.446C120.119 224.364 119 223.277 119 221.899V199.465C119 198.128 120.078 197 121.446 197H157.554C158.88 197 160 198.086 160 199.465V221.899C160 223.236 158.88 224.364 157.554 224.364Z" fill="#94C23B"/>
<path d="M160.001 199.465V201.762L141.636 216.677C141.056 217.136 140.351 217.387 139.688 217.387C139.025 217.387 138.32 217.178 137.74 216.718L119.043 201.804V199.548C119.043 199.423 119.043 199.298 119.084 199.172L139.066 215.089C139.439 215.382 139.978 215.382 140.351 215.089L160.001 199.172C160.001 199.214 160.001 199.339 160.001 199.465Z" fill="#1AD874"/>
<path d="M159.999 199.465V201.762L141.634 216.677C141.054 217.136 140.349 217.387 139.686 217.387C139.023 217.387 138.318 217.178 137.738 216.718L119.041 201.804V199.548C119.041 199.423 119.041 199.298 119.082 199.172L139.064 215.089C139.437 215.382 139.976 215.382 140.349 215.089L159.999 199.172C159.999 199.214 159.999 199.339 159.999 199.465Z" fill="white"/>
</g>
<defs>
<linearGradient id="paint0_linear_1457_758" x1="303.634" y1="81.2965" x2="318.352" y2="81.2965" gradientUnits="userSpaceOnUse">
<stop offset="0.000454696" stop-color="#FFA300"/>
<stop offset="1" stop-color="#DD8505"/>
</linearGradient>
<linearGradient id="paint1_linear_1457_758" x1="354.881" y1="229.6" x2="354.881" y2="108.8" gradientUnits="userSpaceOnUse">
<stop stop-color="#94C23B"/>
<stop offset="1" stop-color="#468E53"/>
</linearGradient>
<linearGradient id="paint2_linear_1457_758" x1="302.701" y1="141.971" x2="333.374" y2="141.971" gradientUnits="userSpaceOnUse">
<stop stop-color="#94C23B"/>
<stop offset="1" stop-color="#468E53"/>
</linearGradient>
<linearGradient id="paint3_linear_1457_758" x1="378.86" y1="190.4" x2="378.86" y2="114.4" gradientUnits="userSpaceOnUse">
<stop stop-color="#94C23B"/>
<stop offset="1" stop-color="#468E53"/>
</linearGradient>
<linearGradient id="paint4_linear_1457_758" x1="312.178" y1="100.063" x2="334.309" y2="100.063" gradientUnits="userSpaceOnUse">
<stop stop-color="#3D4E59"/>
<stop offset="0.9963" stop-color="#5D6A72"/>
</linearGradient>
<linearGradient id="paint5_linear_1457_758" x1="361.6" y1="82.6033" x2="376.118" y2="82.6033" gradientUnits="userSpaceOnUse">
<stop offset="0.000454696" stop-color="#FFA300"/>
<stop offset="1" stop-color="#DD8505"/>
</linearGradient>
<linearGradient id="paint6_linear_1457_758" x1="207.5" y1="238" x2="207.5" y2="358" gradientUnits="userSpaceOnUse">
<stop stop-color="#525B69"/>
<stop offset="1" stop-color="#101928"/>
</linearGradient>
<linearGradient id="paint7_linear_1457_758" x1="138.715" y1="148.246" x2="307.145" y2="148.246" gradientUnits="userSpaceOnUse">
<stop stop-color="#3D4E59"/>
<stop offset="0.9963" stop-color="#5D6A72"/>
</linearGradient>
<linearGradient id="paint8_linear_1457_758" x1="304.46" y1="205.909" x2="171.139" y2="118.52" gradientUnits="userSpaceOnUse">
<stop stop-color="#BAC6BF"/>
<stop offset="0.9963" stop-color="#DCE2DE"/>
</linearGradient>
<linearGradient id="paint9_linear_1457_758" x1="192.893" y1="195.54" x2="233.316" y2="195.54" gradientUnits="userSpaceOnUse">
<stop stop-color="#3D4E59"/>
<stop offset="0.9963" stop-color="#5D6A72"/>
</linearGradient>
<clipPath id="clip0_1457_758">
<rect width="446" height="358" fill="white"/>
</clipPath>
</defs>
</svg>
